<svg xmlns="http://www.w3.org/2000/svg" xmlns:xlink="http://www.w3.org/1999/xlink" width="412" height="120" viewBox="0 0 412 120">
  <defs>
    <clipPath id="clip-WEBDEV">
      <rect width="412" height="120"/>
    </clipPath>
  </defs>
  <g id="WEBDEV" clip-path="url(#clip-WEBDEV)">
    <path id="Path_3" data-name="Path 3" d="M55.37,6.68a1.071,1.071,0,0,1,.62,1.02,1.354,1.354,0,0,1-.3.82.988.988,0,0,1-.82.42,1.442,1.442,0,0,1-.68-.18,4.927,4.927,0,0,0-2.12-.46,4.862,4.862,0,0,0-2.44.59,4,4,0,0,0-1.6,1.66A5.206,5.206,0,0,0,47.47,13a4.738,4.738,0,0,0,1.27,3.58,5.14,5.14,0,0,0,5.45.76,1.607,1.607,0,0,1,.64-.16,1.1,1.1,0,0,1,.88.44,1.3,1.3,0,0,1,.3.82,1.085,1.085,0,0,1-.16.58,1.041,1.041,0,0,1-.46.4,7.324,7.324,0,0,1-3.32.78,7.857,7.857,0,0,1-3.6-.83,6.387,6.387,0,0,1-2.62-2.45A7.437,7.437,0,0,1,44.87,13a7.218,7.218,0,0,1,.93-3.66,6.6,6.6,0,0,1,2.57-2.53,7.5,7.5,0,0,1,3.7-.91A7.122,7.122,0,0,1,55.37,6.68ZM62.61,20.2a8.36,8.36,0,0,1-2.56-.36,5.926,5.926,0,0,1-2.1-1.22,1.4,1.4,0,0,1-.54-1.06,1.128,1.128,0,0,1,.34-.81,1.1,1.1,0,0,1,.82-.35,1.06,1.06,0,0,1,.68.24,5.888,5.888,0,0,0,1.56.96,4.893,4.893,0,0,0,1.8.3,3.6,3.6,0,0,0,1.93-.5,1.449,1.449,0,0,0,.81-1.24,1.59,1.59,0,0,0-.8-1.41,6.78,6.78,0,0,0-2.54-.77q-4.38-.64-4.38-4.08a3.686,3.686,0,0,1,.66-2.19,4.167,4.167,0,0,1,1.8-1.42,6.369,6.369,0,0,1,2.54-.49A7.268,7.268,0,0,1,65,6.18a5.747,5.747,0,0,1,1.85,1,1.335,1.335,0,0,1,.58,1.06,1.128,1.128,0,0,1-.34.81,1.08,1.08,0,0,1-.8.35.878.878,0,0,1-.54-.18,5.283,5.283,0,0,0-1.45-.77,4.806,4.806,0,0,0-1.67-.35,3.441,3.441,0,0,0-1.95.47,1.493,1.493,0,0,0,.02,2.53,6.735,6.735,0,0,0,2.23.72,11.567,11.567,0,0,1,2.75.77,3.51,3.51,0,0,1,1.55,1.28,3.932,3.932,0,0,1,.52,2.15,3.591,3.591,0,0,1-.71,2.21,4.565,4.565,0,0,1-1.89,1.46A6.333,6.333,0,0,1,62.61,20.2ZM75.83,6a3.454,3.454,0,0,1,1.94.61,4.515,4.515,0,0,1,1.48,1.64,4.78,4.78,0,0,1,0,4.49,4.493,4.493,0,0,1-1.48,1.65,3.454,3.454,0,0,1-1.94.61H72.35v3.78a1.232,1.232,0,0,1-.32.88,1.1,1.1,0,0,1-.84.34,1.061,1.061,0,0,1-.82-.35,1.241,1.241,0,0,1-.32-.87V7.22A1.2,1.2,0,0,1,71.27,6Zm0,6.72a1.147,1.147,0,0,0,.75-.32,2.358,2.358,0,0,0,.6-.83,2.6,2.6,0,0,0,0-2.14,2.259,2.259,0,0,0-.6-.82,1.166,1.166,0,0,0-.75-.31H72.35v4.42Zm8.78,6.06a1.135,1.135,0,0,1-.38.87,1.26,1.26,0,0,1-.88.35,1.206,1.206,0,0,1-.89-.35,1.181,1.181,0,0,1-.35-.87V7.22a1.164,1.164,0,0,1,.36-.87A1.265,1.265,0,0,1,83.39,6a1.191,1.191,0,0,1,.86.35,1.164,1.164,0,0,1,.36.87Zm13.98-.74a1.178,1.178,0,0,1,.41.42,1.066,1.066,0,0,1,.15.54,1.033,1.033,0,0,1-.24.66,1.13,1.13,0,0,1-.92.36,1.8,1.8,0,0,1-.88-.22q-1.44-.82-1.44-3.34a1.452,1.452,0,0,0-.47-1.14,1.961,1.961,0,0,0-1.35-.42H90.11v3.88a1.309,1.309,0,0,1-.29.88.962.962,0,0,1-.77.34,1.551,1.551,0,0,1-1.01-.35,1.079,1.079,0,0,1-.43-.87V7.22A1.2,1.2,0,0,1,88.83,6h5.76a3.707,3.707,0,0,1,1.96.56A4.133,4.133,0,0,1,98.02,8.1a4.417,4.417,0,0,1,.55,2.2,3.9,3.9,0,0,1-.54,1.95,4.3,4.3,0,0,1-1.4,1.51,3.064,3.064,0,0,1,1.38,2.36,3.362,3.362,0,0,1,.06.62,6.371,6.371,0,0,0,.16.89A.659.659,0,0,0,98.59,18.04Zm-4.1-5.2a1,1,0,0,0,.7-.34,2.581,2.581,0,0,0,.56-.91,3.387,3.387,0,0,0,.22-1.23,2.4,2.4,0,0,0-.22-1.03,2.11,2.11,0,0,0-.56-.75,1.093,1.093,0,0,0-.7-.28H90.11v4.54Zm14.78,4.86a1.181,1.181,0,0,1,.87.35,1.112,1.112,0,0,1,.35.81,1.061,1.061,0,0,1-.35.82,1.241,1.241,0,0,1-.87.32h-6.7a1.2,1.2,0,0,1-1.22-1.22V7.22A1.2,1.2,0,0,1,102.57,6h6.7a1.219,1.219,0,0,1,.87.33,1.116,1.116,0,0,1,.35.85,1.045,1.045,0,0,1-.34.81,1.255,1.255,0,0,1-.88.31h-5.42v3.4h4.52a1.219,1.219,0,0,1,.87.33,1.116,1.116,0,0,1,.35.85,1.045,1.045,0,0,1-.34.81,1.255,1.255,0,0,1-.88.31h-4.52v3.7Zm11.3,3.58a1.2,1.2,0,0,1-1.22,1.22,1.125,1.125,0,0,1-.84-.35,1.2,1.2,0,0,1-.34-.87V5.2a1.2,1.2,0,0,1,1.22-1.22,1.125,1.125,0,0,1,.84.35,1.2,1.2,0,0,1,.34.87ZM139.09,6a1.217,1.217,0,0,1,.9.34,1.191,1.191,0,0,1,.34.88V18.78a1.164,1.164,0,0,1-.36.87,1.265,1.265,0,0,1-.92.35,1.191,1.191,0,0,1-.86-.35,1.164,1.164,0,0,1-.36-.87V14.12h-6.38v4.66a1.135,1.135,0,0,1-.38.87,1.26,1.26,0,0,1-.88.35,1.206,1.206,0,0,1-.89-.35,1.181,1.181,0,0,1-.35-.87V7.22a1.164,1.164,0,0,1,.36-.87,1.265,1.265,0,0,1,.92-.35,1.191,1.191,0,0,1,.86.35,1.164,1.164,0,0,1,.36.87v4.6h6.38V7.22a1.135,1.135,0,0,1,.38-.87A1.26,1.26,0,0,1,139.09,6Zm17.12,7a7.592,7.592,0,0,1-.88,3.63,6.739,6.739,0,0,1-2.43,2.61,6.824,6.824,0,0,1-6.98,0,6.666,6.666,0,0,1-2.42-2.61,7.662,7.662,0,0,1-.87-3.63,7.662,7.662,0,0,1,.87-3.63,6.666,6.666,0,0,1,2.42-2.61,6.824,6.824,0,0,1,6.98,0,6.74,6.74,0,0,1,2.43,2.61A7.592,7.592,0,0,1,156.21,13Zm-2.6,0a5.4,5.4,0,0,0-.54-2.43,4.358,4.358,0,0,0-1.5-1.73,4.008,4.008,0,0,0-4.33-.01,4.226,4.226,0,0,0-1.48,1.73,5.548,5.548,0,0,0-.53,2.44,5.548,5.548,0,0,0,.53,2.44,4.226,4.226,0,0,0,1.48,1.73,4.008,4.008,0,0,0,4.33-.01,4.358,4.358,0,0,0,1.5-1.73A5.4,5.4,0,0,0,153.61,13Zm14.84-7.02a1.1,1.1,0,0,1,.84.34,1.232,1.232,0,0,1,.32.88v7.24a6.028,6.028,0,0,1-.7,2.94,5.05,5.05,0,0,1-1.96,2,6.14,6.14,0,0,1-5.77,0,5.031,5.031,0,0,1-1.97-2,6.028,6.028,0,0,1-.7-2.94V7.2a1.164,1.164,0,0,1,.36-.87,1.265,1.265,0,0,1,.92-.35,1.212,1.212,0,0,1,1.2,1.22v7.24a3.439,3.439,0,0,0,.42,1.71,2.93,2.93,0,0,0,1.13,1.15,3.066,3.066,0,0,0,1.53.4,3.37,3.37,0,0,0,1.61-.4,3.058,3.058,0,0,0,1.2-1.15,3.258,3.258,0,0,0,.45-1.71V7.2a1.281,1.281,0,0,1,.3-.88A1.037,1.037,0,0,1,168.45,5.98Zm15.14,12.06a1.178,1.178,0,0,1,.41.42,1.066,1.066,0,0,1,.15.54,1.033,1.033,0,0,1-.24.66,1.13,1.13,0,0,1-.92.36,1.8,1.8,0,0,1-.88-.22q-1.44-.82-1.44-3.34a1.452,1.452,0,0,0-.47-1.14,1.961,1.961,0,0,0-1.35-.42h-3.74v3.88a1.309,1.309,0,0,1-.29.88.962.962,0,0,1-.77.34,1.551,1.551,0,0,1-1.01-.35,1.079,1.079,0,0,1-.43-.87V7.22A1.2,1.2,0,0,1,173.83,6h5.76a3.707,3.707,0,0,1,1.96.56,4.133,4.133,0,0,1,1.47,1.54,4.417,4.417,0,0,1,.55,2.2,3.9,3.9,0,0,1-.54,1.95,4.3,4.3,0,0,1-1.4,1.51,3.064,3.064,0,0,1,1.38,2.36,3.362,3.362,0,0,1,.06.62,6.371,6.371,0,0,0,.16.89A.66.66,0,0,0,183.59,18.04Zm-4.1-5.2a1,1,0,0,0,.7-.34,2.581,2.581,0,0,0,.56-.91,3.387,3.387,0,0,0,.22-1.23,2.4,2.4,0,0,0-.22-1.03,2.11,2.11,0,0,0-.56-.75,1.093,1.093,0,0,0-.7-.28h-4.38v4.54Zm25.34.16a7.592,7.592,0,0,1-.88,3.63,6.739,6.739,0,0,1-2.43,2.61,6.824,6.824,0,0,1-6.98,0,6.666,6.666,0,0,1-2.42-2.61,7.662,7.662,0,0,1-.87-3.63,7.662,7.662,0,0,1,.87-3.63,6.666,6.666,0,0,1,2.42-2.61,6.824,6.824,0,0,1,6.98,0,6.74,6.74,0,0,1,2.43,2.61A7.592,7.592,0,0,1,204.83,13Zm-2.6,0a5.4,5.4,0,0,0-.54-2.43,4.358,4.358,0,0,0-1.5-1.73,4.008,4.008,0,0,0-4.33-.01,4.226,4.226,0,0,0-1.48,1.73,5.548,5.548,0,0,0-.53,2.44,5.548,5.548,0,0,0,.53,2.44,4.226,4.226,0,0,0,1.48,1.73,4.008,4.008,0,0,0,4.33-.01,4.358,4.358,0,0,0,1.5-1.73A5.4,5.4,0,0,0,202.23,13Zm7.4-4.7v3.52h4.32a1.219,1.219,0,0,1,.87.33,1.116,1.116,0,0,1,.35.85,1.059,1.059,0,0,1-.35.78,1.2,1.2,0,0,1-.87.34h-4.32v4.66a1.149,1.149,0,0,1-.37.87,1.225,1.225,0,0,1-.87.35,1.251,1.251,0,0,1-.91-.34,1.173,1.173,0,0,1-.35-.88V7.22A1.2,1.2,0,0,1,208.35,6h6.5a1.219,1.219,0,0,1,.87.33,1.116,1.116,0,0,1,.35.85,1.059,1.059,0,0,1-.35.78,1.2,1.2,0,0,1-.87.34Zm24.14-1.62a1.071,1.071,0,0,1,.62,1.02,1.354,1.354,0,0,1-.3.82.988.988,0,0,1-.82.42,1.442,1.442,0,0,1-.68-.18,4.927,4.927,0,0,0-2.12-.46,4.862,4.862,0,0,0-2.44.59,4,4,0,0,0-1.6,1.66,5.206,5.206,0,0,0-.56,2.45,4.738,4.738,0,0,0,1.27,3.58,5.14,5.14,0,0,0,5.45.76,1.607,1.607,0,0,1,.64-.16,1.1,1.1,0,0,1,.88.44,1.3,1.3,0,0,1,.3.82,1.085,1.085,0,0,1-.16.58,1.041,1.041,0,0,1-.46.4,7.324,7.324,0,0,1-3.32.78,7.857,7.857,0,0,1-3.6-.83,6.387,6.387,0,0,1-2.62-2.45,7.437,7.437,0,0,1-.98-3.92,7.218,7.218,0,0,1,.93-3.66,6.6,6.6,0,0,1,2.57-2.53,7.5,7.5,0,0,1,3.7-.91A7.122,7.122,0,0,1,233.77,6.68ZM249.39,13a7.592,7.592,0,0,1-.88,3.63,6.739,6.739,0,0,1-2.43,2.61,6.824,6.824,0,0,1-6.98,0,6.666,6.666,0,0,1-2.42-2.61,7.662,7.662,0,0,1-.87-3.63,7.662,7.662,0,0,1,.87-3.63,6.666,6.666,0,0,1,2.42-2.61,6.824,6.824,0,0,1,6.98,0,6.74,6.74,0,0,1,2.43,2.61A7.592,7.592,0,0,1,249.39,13Zm-2.6,0a5.4,5.4,0,0,0-.54-2.43,4.358,4.358,0,0,0-1.5-1.73,4.008,4.008,0,0,0-4.33-.01,4.226,4.226,0,0,0-1.48,1.73,5.548,5.548,0,0,0-.53,2.44,5.548,5.548,0,0,0,.53,2.44,4.226,4.226,0,0,0,1.48,1.73,4.008,4.008,0,0,0,4.33-.01,4.358,4.358,0,0,0,1.5-1.73A5.4,5.4,0,0,0,246.79,13Zm10.9-7a5.553,5.553,0,0,1,3.23.93,5.913,5.913,0,0,1,2.06,2.52,8.613,8.613,0,0,1,.71,3.55,8.613,8.613,0,0,1-.71,3.55,5.913,5.913,0,0,1-2.06,2.52,5.553,5.553,0,0,1-3.23.93h-4.78a1.2,1.2,0,0,1-1.22-1.22V7.22A1.2,1.2,0,0,1,252.91,6Zm-.2,11.7a3.043,3.043,0,0,0,2.7-1.33,5.887,5.887,0,0,0,.9-3.37,5.839,5.839,0,0,0-.91-3.37,3.048,3.048,0,0,0-2.69-1.33h-3.3v9.4Zm16.42,0a1.181,1.181,0,0,1,.87.35,1.112,1.112,0,0,1,.35.81,1.061,1.061,0,0,1-.35.82,1.241,1.241,0,0,1-.87.32h-6.7a1.2,1.2,0,0,1-1.22-1.22V7.22A1.2,1.2,0,0,1,267.21,6h6.7a1.219,1.219,0,0,1,.87.33,1.116,1.116,0,0,1,.35.85,1.045,1.045,0,0,1-.34.81,1.255,1.255,0,0,1-.88.31h-5.42v3.4h4.52a1.219,1.219,0,0,1,.87.33,1.116,1.116,0,0,1,.35.85,1.045,1.045,0,0,1-.34.81,1.255,1.255,0,0,1-.88.31h-4.52v3.7Z" transform="translate(37 18)" fill="#aeaeae"/>
    <path id="Path_4" data-name="Path 4" d="M52.778,10.692a2.348,2.348,0,0,1,1.6.666,2.159,2.159,0,0,1,.738,1.674,2.76,2.76,0,0,1-.108.72l-7.092,20.88a1.9,1.9,0,0,1-.756.972,2.338,2.338,0,0,1-1.188.4,2.271,2.271,0,0,1-1.224-.36,2.409,2.409,0,0,1-.9-1.044L38.738,22.968,33.59,34.6a2.409,2.409,0,0,1-.9,1.044,2.271,2.271,0,0,1-1.224.36,2.338,2.338,0,0,1-1.188-.4,1.9,1.9,0,0,1-.756-.972L22.43,13.752a2.759,2.759,0,0,1-.108-.72,2.159,2.159,0,0,1,.738-1.674,2.389,2.389,0,0,1,1.638-.666,2.31,2.31,0,0,1,1.3.378,1.923,1.923,0,0,1,.792,1.026L32.15,28.368l4.68-11.232a2.422,2.422,0,0,1,.828-1.026,1.9,1.9,0,0,1,1.224-.342,1.83,1.83,0,0,1,1.206.342,2.477,2.477,0,0,1,.81,1.026L45.326,28.26,50.654,12.1a1.9,1.9,0,0,1,.81-1.026A2.4,2.4,0,0,1,52.778,10.692ZM72.65,31.86a2.126,2.126,0,0,1,1.566.63,2,2,0,0,1,.63,1.458,1.91,1.91,0,0,1-.63,1.476A2.234,2.234,0,0,1,72.65,36H60.59a2.152,2.152,0,0,1-2.2-2.2V13a2.152,2.152,0,0,1,2.2-2.2H72.65a2.195,2.195,0,0,1,1.566.594,2.009,2.009,0,0,1,.63,1.53,1.881,1.881,0,0,1-.612,1.458,2.26,2.26,0,0,1-1.584.558H62.894v6.12H71.03a2.195,2.195,0,0,1,1.566.594,2.009,2.009,0,0,1,.63,1.53,1.881,1.881,0,0,1-.612,1.458,2.26,2.26,0,0,1-1.584.558H62.894v6.66Zm21.456-9.828a7.248,7.248,0,0,1,3.114,2.3,6.313,6.313,0,0,1,1.206,4q0,4.284-2.448,5.976A10,10,0,0,1,90.146,36H81.182a2.152,2.152,0,0,1-2.2-2.2V13a2.152,2.152,0,0,1,2.2-2.2h9.072q6.84,0,6.84,6.408a5.3,5.3,0,0,1-.774,2.862A5.357,5.357,0,0,1,94.106,22.032ZM92.414,18a3.007,3.007,0,0,0-.738-2.214,2.8,2.8,0,0,0-2.07-.738h-5.94v5.616h6.048a2.756,2.756,0,0,0,1.89-.72A2.47,2.47,0,0,0,92.414,18ZM90.146,31.86a3.7,3.7,0,0,0,2.646-.9,3.442,3.442,0,0,0,.954-2.628q0-2.124-1.116-2.772a5.368,5.368,0,0,0-2.736-.648H83.666V31.86Zm33.3-21.06a9.995,9.995,0,0,1,5.814,1.674,10.643,10.643,0,0,1,3.708,4.536,15.5,15.5,0,0,1,1.278,6.39,15.5,15.5,0,0,1-1.278,6.39,10.643,10.643,0,0,1-3.708,4.536A9.995,9.995,0,0,1,123.446,36h-8.6a2.152,2.152,0,0,1-2.2-2.2V13a2.152,2.152,0,0,1,2.2-2.2Zm-.36,21.06a5.477,5.477,0,0,0,4.86-2.394,10.6,10.6,0,0,0,1.62-6.066,10.509,10.509,0,0,0-1.638-6.066,5.487,5.487,0,0,0-4.842-2.394h-5.94V31.86Zm29.556,0a2.126,2.126,0,0,1,1.566.63,2,2,0,0,1,.63,1.458,1.91,1.91,0,0,1-.63,1.476,2.234,2.234,0,0,1-1.566.576h-12.06a2.152,2.152,0,0,1-2.2-2.2V13a2.152,2.152,0,0,1,2.2-2.2h12.06a2.195,2.195,0,0,1,1.566.594,2.009,2.009,0,0,1,.63,1.53,1.881,1.881,0,0,1-.612,1.458,2.26,2.26,0,0,1-1.584.558h-9.756v6.12h8.136a2.195,2.195,0,0,1,1.566.594,2.009,2.009,0,0,1,.63,1.53,1.881,1.881,0,0,1-.612,1.458,2.26,2.26,0,0,1-1.584.558h-8.136v6.66Zm24.732-21.132a2.239,2.239,0,0,1,1.566.612,1.933,1.933,0,0,1,.666,1.476,2.463,2.463,0,0,1-.216.972L170.5,34.6a2.409,2.409,0,0,1-.9,1.044,2.065,2.065,0,0,1-2.358-.018,2.227,2.227,0,0,1-.81-.99l-8.892-20.88a2,2,0,0,1-.18-.9,1.93,1.93,0,0,1,.72-1.566,2.305,2.305,0,0,1,1.476-.594,2.04,2.04,0,0,1,1.152.36,2.273,2.273,0,0,1,.828,1.044l7.236,17.028L175.394,12.1a2.3,2.3,0,0,1,.828-1.008A2.04,2.04,0,0,1,177.374,10.728ZM197.642,31.86a2.126,2.126,0,0,1,1.566.63,2,2,0,0,1,.63,1.458,1.91,1.91,0,0,1-.63,1.476,2.234,2.234,0,0,1-1.566.576h-12.06a2.152,2.152,0,0,1-2.2-2.2V13a2.152,2.152,0,0,1,2.2-2.2h12.06a2.195,2.195,0,0,1,1.566.594,2.009,2.009,0,0,1,.63,1.53,1.881,1.881,0,0,1-.612,1.458,2.26,2.26,0,0,1-1.584.558h-9.756v6.12h8.136a2.195,2.195,0,0,1,1.566.594,2.009,2.009,0,0,1,.63,1.53,1.881,1.881,0,0,1-.612,1.458,2.26,2.26,0,0,1-1.584.558h-8.136v6.66Zm20.232-.072a2.195,2.195,0,0,1,1.566.594,2.009,2.009,0,0,1,.63,1.53,1.967,1.967,0,0,1-.63,1.494,2.195,2.195,0,0,1-1.566.594h-11.7a2.152,2.152,0,0,1-2.2-2.2V13a2.1,2.1,0,0,1,.648-1.566,2.277,2.277,0,0,1,1.656-.63,2.143,2.143,0,0,1,1.548.63A2.1,2.1,0,0,1,208.478,13V31.788Zm29.16-8.388a13.665,13.665,0,0,1-1.584,6.534,12.131,12.131,0,0,1-4.374,4.7,12.283,12.283,0,0,1-12.564,0,12,12,0,0,1-4.356-4.7A13.792,13.792,0,0,1,222.59,23.4a13.792,13.792,0,0,1,1.566-6.534,12,12,0,0,1,4.356-4.7,12.283,12.283,0,0,1,12.564,0,12.131,12.131,0,0,1,4.374,4.7A13.665,13.665,0,0,1,247.034,23.4Zm-4.68,0a9.718,9.718,0,0,0-.972-4.374,7.845,7.845,0,0,0-2.7-3.114,7.215,7.215,0,0,0-7.794-.018,7.606,7.606,0,0,0-2.664,3.114,9.986,9.986,0,0,0-.954,4.392,9.986,9.986,0,0,0,.954,4.392,7.606,7.606,0,0,0,2.664,3.114,7.215,7.215,0,0,0,7.794-.018,7.845,7.845,0,0,0,2.7-3.114A9.717,9.717,0,0,0,242.354,23.4Zm19.224-12.6a6.218,6.218,0,0,1,3.492,1.1,8.127,8.127,0,0,1,2.664,2.952,8.6,8.6,0,0,1,0,8.082,8.088,8.088,0,0,1-2.664,2.97,6.218,6.218,0,0,1-3.492,1.1h-6.264v6.8a2.218,2.218,0,0,1-.576,1.584,1.98,1.98,0,0,1-1.512.612,1.91,1.91,0,0,1-1.476-.63,2.234,2.234,0,0,1-.576-1.566V13a2.152,2.152,0,0,1,2.2-2.2Zm0,12.1a2.064,2.064,0,0,0,1.35-.576,4.245,4.245,0,0,0,1.08-1.494,4.687,4.687,0,0,0,0-3.852,4.067,4.067,0,0,0-1.08-1.476,2.1,2.1,0,0,0-1.35-.558h-6.264V22.9Zm33.156-12.132a2.2,2.2,0,0,1,1.566.63,2.068,2.068,0,0,1,.666,1.566V33.8a2.127,2.127,0,0,1-2.232,2.2,2.252,2.252,0,0,1-1.638-.612,2.111,2.111,0,0,1-.63-1.584V19.3l-5.94,9.072a3.07,3.07,0,0,1-.828.7,1.671,1.671,0,0,1-.972.234,1.6,1.6,0,0,1-.936-.234,3.071,3.071,0,0,1-.828-.7l-5.94-9.4V33.8a2.218,2.218,0,0,1-.576,1.584,1.98,1.98,0,0,1-1.512.612,1.91,1.91,0,0,1-1.476-.63,2.234,2.234,0,0,1-.576-1.566V12.96a2.085,2.085,0,0,1,.666-1.548,2.215,2.215,0,0,1,1.6-.648,2.4,2.4,0,0,1,1.08.27,2.089,2.089,0,0,1,.828.7l7.848,12.06,8.064-12.06a2.189,2.189,0,0,1,.774-.7A2.017,2.017,0,0,1,294.734,10.764Zm21.888,21.1a2.126,2.126,0,0,1,1.566.63,2,2,0,0,1,.63,1.458,1.91,1.91,0,0,1-.63,1.476,2.234,2.234,0,0,1-1.566.576h-12.06a2.152,2.152,0,0,1-2.2-2.2V13a2.152,2.152,0,0,1,2.2-2.2h12.06a2.195,2.195,0,0,1,1.566.594,2.009,2.009,0,0,1,.63,1.53,1.881,1.881,0,0,1-.612,1.458,2.26,2.26,0,0,1-1.584.558h-9.756v6.12H315a2.195,2.195,0,0,1,1.566.594,2.009,2.009,0,0,1,.63,1.53,1.881,1.881,0,0,1-.612,1.458A2.26,2.26,0,0,1,315,25.2h-8.136v6.66ZM342.074,10.8a1.837,1.837,0,0,1,1.4.576,2.024,2.024,0,0,1,.54,1.44V33.8a2.152,2.152,0,0,1-2.2,2.2,3.111,3.111,0,0,1-.99-.162,1.4,1.4,0,0,1-.7-.45L326.918,18.612V33.984a1.987,1.987,0,0,1-.558,1.44A1.939,1.939,0,0,1,324.9,36a1.837,1.837,0,0,1-1.4-.576,2.024,2.024,0,0,1-.54-1.44V13a2.152,2.152,0,0,1,2.2-2.2,2.755,2.755,0,0,1,1.062.216,1.709,1.709,0,0,1,.774.576l13.1,16.7V12.816a1.987,1.987,0,0,1,.558-1.44A1.894,1.894,0,0,1,342.074,10.8Zm23.9,0a2.218,2.218,0,0,1,1.584.576,1.98,1.98,0,0,1,.612,1.512,1.923,1.923,0,0,1-.612,1.494,2.26,2.26,0,0,1-1.584.558h-5.652V33.8a2.042,2.042,0,0,1-.684,1.566,2.4,2.4,0,0,1-1.692.63,2.277,2.277,0,0,1-1.656-.63,2.1,2.1,0,0,1-.648-1.566V14.94h-5.652a2.218,2.218,0,0,1-1.584-.576,1.98,1.98,0,0,1-.612-1.512,1.91,1.91,0,0,1,.63-1.476,2.234,2.234,0,0,1,1.566-.576Z" transform="translate(2 37)" opacity="0.6"/>
    <path id="Path_5" data-name="Path 5" d="M53.549,3.267a.718.718,0,0,1,.489.2.66.66,0,0,1,.225.512.843.843,0,0,1-.033.22l-2.167,6.38a.58.58,0,0,1-.231.3A.715.715,0,0,1,51.47,11a.694.694,0,0,1-.374-.11.736.736,0,0,1-.275-.319L49.259,7.018l-1.573,3.553a.736.736,0,0,1-.275.319.694.694,0,0,1-.374.11.715.715,0,0,1-.363-.121.58.58,0,0,1-.231-.3L44.276,4.2a.843.843,0,0,1-.033-.22.66.66,0,0,1,.226-.512.73.73,0,0,1,.5-.2.706.706,0,0,1,.4.115.588.588,0,0,1,.242.314l1.639,4.972,1.43-3.432a.74.74,0,0,1,.253-.313.581.581,0,0,1,.374-.1.559.559,0,0,1,.368.1.757.757,0,0,1,.248.313l1.353,3.4L52.9,3.7a.58.58,0,0,1,.247-.314A.733.733,0,0,1,53.549,3.267Zm3.091,7.062a.624.624,0,0,1-.209.479.693.693,0,0,1-.484.193.663.663,0,0,1-.489-.193.65.65,0,0,1-.193-.479V3.971a.64.64,0,0,1,.2-.478.7.7,0,0,1,.506-.193.655.655,0,0,1,.473.193.64.64,0,0,1,.2.478ZM63.35,3.3a.678.678,0,0,1,.484.176.605.605,0,0,1,.187.462.588.588,0,0,1-.187.456.69.69,0,0,1-.484.171H61.623v5.764a.624.624,0,0,1-.209.479A.734.734,0,0,1,60.9,11a.7.7,0,0,1-.506-.193.64.64,0,0,1-.2-.479V4.565H58.466a.678.678,0,0,1-.484-.176.605.605,0,0,1-.187-.462.584.584,0,0,1,.192-.451.682.682,0,0,1,.479-.176Zm7.4,0a.669.669,0,0,1,.5.187.655.655,0,0,1,.187.484v6.358a.64.64,0,0,1-.2.479.7.7,0,0,1-.506.193.655.655,0,0,1-.473-.193.64.64,0,0,1-.2-.479V7.766H66.551v2.563a.624.624,0,0,1-.209.479.693.693,0,0,1-.484.193.663.663,0,0,1-.49-.193.65.65,0,0,1-.193-.479V3.971a.64.64,0,0,1,.2-.478A.7.7,0,0,1,65.88,3.3a.655.655,0,0,1,.473.193.64.64,0,0,1,.2.478V6.5H70.06V3.971a.624.624,0,0,1,.209-.478A.693.693,0,0,1,70.753,3.3Zm8.712,0a3.054,3.054,0,0,1,1.776.512A3.252,3.252,0,0,1,82.374,5.2a4.737,4.737,0,0,1,.391,1.952A4.737,4.737,0,0,1,82.374,9.1a3.252,3.252,0,0,1-1.133,1.386A3.054,3.054,0,0,1,79.465,11H76.836a.658.658,0,0,1-.671-.671V3.971a.658.658,0,0,1,.671-.671Zm-.11,6.435A1.674,1.674,0,0,0,80.84,9a3.238,3.238,0,0,0,.5-1.854,3.211,3.211,0,0,0-.5-1.853,1.677,1.677,0,0,0-1.479-.732H77.54v5.17Zm10.659.407a.74.74,0,0,1,.055.264.623.623,0,0,1-.187.467.6.6,0,0,1-.429.182.577.577,0,0,1-.357-.121.786.786,0,0,1-.248-.33l-.572-1.331H85l-.572,1.342a.677.677,0,0,1-.237.325.56.56,0,0,1-.929-.457.728.728,0,0,1,.033-.209L86.032,3.7a.73.73,0,0,1,.264-.341.576.576,0,0,1,.4-.1.644.644,0,0,1,.368.115.652.652,0,0,1,.247.325ZM85.537,8.008h2.2L86.626,5.434ZM97.681,3.289a.674.674,0,0,1,.479.193.632.632,0,0,1,.2.478v6.369a.65.65,0,0,1-.682.671.688.688,0,0,1-.5-.187.645.645,0,0,1-.193-.484V5.9L95.173,8.668a.938.938,0,0,1-.253.215.511.511,0,0,1-.3.072.49.49,0,0,1-.286-.072.938.938,0,0,1-.253-.215L92.269,5.8v4.532a.678.678,0,0,1-.176.484.605.605,0,0,1-.462.187.584.584,0,0,1-.451-.193A.682.682,0,0,1,91,10.329V3.96a.637.637,0,0,1,.2-.473.677.677,0,0,1,.489-.2.732.732,0,0,1,.33.082.638.638,0,0,1,.253.214l2.4,3.685,2.464-3.685a.669.669,0,0,1,.237-.214A.616.616,0,0,1,97.681,3.289Zm3.707,7.04a.624.624,0,0,1-.209.479.693.693,0,0,1-.484.193.663.663,0,0,1-.49-.193.65.65,0,0,1-.193-.479V3.971a.64.64,0,0,1,.2-.478.7.7,0,0,1,.506-.193.655.655,0,0,1,.473.193.64.64,0,0,1,.2.478Zm8.734-3.179a4.175,4.175,0,0,1-.484,2,3.707,3.707,0,0,1-1.337,1.436,3.753,3.753,0,0,1-3.839,0,3.666,3.666,0,0,1-1.331-1.436,4.214,4.214,0,0,1-.479-2,4.214,4.214,0,0,1,.479-2,3.666,3.666,0,0,1,1.331-1.436,3.753,3.753,0,0,1,3.839,0,3.707,3.707,0,0,1,1.337,1.436A4.175,4.175,0,0,1,110.122,7.15Zm-1.43,0a2.969,2.969,0,0,0-.3-1.336,2.4,2.4,0,0,0-.825-.952,2.2,2.2,0,0,0-2.382-.005,2.324,2.324,0,0,0-.814.951,3.051,3.051,0,0,0-.291,1.342,3.051,3.051,0,0,0,.291,1.342,2.324,2.324,0,0,0,.814.951,2.2,2.2,0,0,0,2.382-.005,2.4,2.4,0,0,0,.825-.951A2.969,2.969,0,0,0,108.692,7.15Zm8.536-3.85a.561.561,0,0,1,.429.176.618.618,0,0,1,.165.44v6.413a.658.658,0,0,1-.671.671.951.951,0,0,1-.3-.05.428.428,0,0,1-.215-.137L112.6,5.687v4.7a.607.607,0,0,1-.171.44.592.592,0,0,1-.446.176.561.561,0,0,1-.429-.176.618.618,0,0,1-.165-.44V3.971a.658.658,0,0,1,.671-.671.842.842,0,0,1,.325.066.522.522,0,0,1,.236.176l4,5.1V3.916a.607.607,0,0,1,.171-.44A.579.579,0,0,1,117.228,3.3Zm8.624,0a3.054,3.054,0,0,1,1.776.512A3.252,3.252,0,0,1,128.761,5.2a4.737,4.737,0,0,1,.391,1.952,4.737,4.737,0,0,1-.391,1.953,3.252,3.252,0,0,1-1.133,1.386,3.054,3.054,0,0,1-1.776.512h-2.629a.658.658,0,0,1-.671-.671V3.971a.658.658,0,0,1,.671-.671Zm-.11,6.435A1.674,1.674,0,0,0,127.227,9a3.238,3.238,0,0,0,.5-1.854,3.211,3.211,0,0,0-.5-1.853,1.677,1.677,0,0,0-1.479-.732h-1.815v5.17Zm9.031,0a.65.65,0,0,1,.479.193.612.612,0,0,1,.193.446.584.584,0,0,1-.193.451.682.682,0,0,1-.479.176h-3.685a.658.658,0,0,1-.671-.671V3.971a.658.658,0,0,1,.671-.671h3.685a.671.671,0,0,1,.479.182.614.614,0,0,1,.193.467.575.575,0,0,1-.187.445.69.69,0,0,1-.484.171h-2.981v1.87h2.486a.671.671,0,0,1,.479.181.614.614,0,0,1,.192.467.575.575,0,0,1-.187.446.69.69,0,0,1-.484.17h-2.486V9.735ZM142.286,3.3a.669.669,0,0,1,.495.187.655.655,0,0,1,.187.484v6.358a.64.64,0,0,1-.2.479.7.7,0,0,1-.506.193.655.655,0,0,1-.473-.193.64.64,0,0,1-.2-.479V7.766h-3.509v2.563a.624.624,0,0,1-.209.479.693.693,0,0,1-.484.193.663.663,0,0,1-.49-.193.65.65,0,0,1-.193-.479V3.971a.64.64,0,0,1,.2-.478.7.7,0,0,1,.506-.193.655.655,0,0,1,.473.193.64.64,0,0,1,.2.478V6.5h3.509V3.971a.624.624,0,0,1,.209-.478A.693.693,0,0,1,142.286,3.3Zm8.371,6.842a.74.74,0,0,1,.055.264.623.623,0,0,1-.187.467.6.6,0,0,1-.429.182.577.577,0,0,1-.357-.121.786.786,0,0,1-.247-.33l-.572-1.331h-3.278l-.572,1.342a.677.677,0,0,1-.236.325.56.56,0,0,1-.93-.457.728.728,0,0,1,.033-.209L146.675,3.7a.73.73,0,0,1,.264-.341.576.576,0,0,1,.4-.1.644.644,0,0,1,.368.115.652.652,0,0,1,.247.325ZM146.18,8.008h2.2l-1.111-2.574Zm11.506,1.914a.648.648,0,0,1,.225.231.586.586,0,0,1,.083.3.568.568,0,0,1-.132.363.621.621,0,0,1-.506.2.988.988,0,0,1-.484-.121,1.931,1.931,0,0,1-.792-1.837.8.8,0,0,0-.258-.627,1.079,1.079,0,0,0-.742-.231h-2.057v2.134a.72.72,0,0,1-.16.484.529.529,0,0,1-.423.187.853.853,0,0,1-.556-.193.594.594,0,0,1-.236-.479V3.971a.658.658,0,0,1,.671-.671h3.168a2.039,2.039,0,0,1,1.078.308,2.273,2.273,0,0,1,.809.847,2.429,2.429,0,0,1,.3,1.21,2.145,2.145,0,0,1-.3,1.072,2.367,2.367,0,0,1-.77.831,1.685,1.685,0,0,1,.759,1.3,1.849,1.849,0,0,1,.033.341,3.5,3.5,0,0,0,.088.49A.363.363,0,0,0,157.686,9.922Zm-2.255-2.86a.548.548,0,0,0,.385-.187,1.42,1.42,0,0,0,.308-.5,1.863,1.863,0,0,0,.121-.676,1.319,1.319,0,0,0-.121-.567,1.161,1.161,0,0,0-.308-.413.6.6,0,0,0-.385-.154h-2.409v2.5ZM164.1,3.3a.678.678,0,0,1,.484.176.605.605,0,0,1,.187.462.588.588,0,0,1-.187.456.691.691,0,0,1-.484.171h-1.727v5.764a.624.624,0,0,1-.209.479.734.734,0,0,1-.517.193.7.7,0,0,1-.506-.193.64.64,0,0,1-.2-.479V4.565h-1.727a.678.678,0,0,1-.484-.176.605.605,0,0,1-.187-.462.584.584,0,0,1,.193-.451.682.682,0,0,1,.479-.176Zm11.319,6.578a1,1,0,0,1,.22.275.68.68,0,0,1,.066.308.615.615,0,0,1-.143.374.471.471,0,0,1-.4.187.569.569,0,0,1-.374-.11l-.605-.517-.352-.308a3.5,3.5,0,0,1-2.585,1.023,2.923,2.923,0,0,1-1.391-.335,2.6,2.6,0,0,1-.99-.891A2.148,2.148,0,0,1,168.51,8.7a2.421,2.421,0,0,1,1.617-2.343,2.711,2.711,0,0,1-.319-.55,1.444,1.444,0,0,1-.11-.561,1.861,1.861,0,0,1,.3-1.017,2.16,2.16,0,0,1,.841-.753,2.67,2.67,0,0,1,1.26-.286,3.48,3.48,0,0,1,1.37.259,1.543,1.543,0,0,1,.819.665.946.946,0,0,1,.1.429.483.483,0,0,1-.16.369.581.581,0,0,1-.412.148.5.5,0,0,1-.429-.2,1.321,1.321,0,0,0-.545-.44,1.906,1.906,0,0,0-.742-.132,1.042,1.042,0,0,0-.742.253.838.838,0,0,0-.27.638,1.179,1.179,0,0,0,.27.71,7.52,7.52,0,0,0,.742.819l.308.308q.352.385,1.243,1.232a4.176,4.176,0,0,0,.308-1.089.394.394,0,0,1,.143-.281.632.632,0,0,1,.385-.094.527.527,0,0,1,.418.193.694.694,0,0,1,.165.467l-.011.11a4.8,4.8,0,0,1-.495,1.54Q175,9.482,175.418,9.878Zm-3.861-.011a1.923,1.923,0,0,0,1.375-.572,21.34,21.34,0,0,1-1.826-1.826l-.2-.231a1.55,1.55,0,0,0-.825.484,1.266,1.266,0,0,0-.231.781,1.3,1.3,0,0,0,.413.962A1.8,1.8,0,0,0,171.557,9.867Zm10.12,1.243a2.661,2.661,0,0,1-1.166-.259,2.321,2.321,0,0,1-.88-.72.7.7,0,0,1-.132-.385.6.6,0,0,1,.209-.457.633.633,0,0,1,.429-.193.922.922,0,0,1,.616.33,1.289,1.289,0,0,0,.429.281,1.4,1.4,0,0,0,.495.082,1.222,1.222,0,0,0,.611-.165,1.3,1.3,0,0,0,.467-.446,1.091,1.091,0,0,0,.176-.589V3.971a.624.624,0,0,1,.209-.478.693.693,0,0,1,.484-.193.669.669,0,0,1,.495.187.655.655,0,0,1,.187.484v4.62a2.365,2.365,0,0,1-.352,1.243,2.654,2.654,0,0,1-2.277,1.276Zm10.153-.968a.74.74,0,0,1,.055.264.623.623,0,0,1-.187.467.6.6,0,0,1-.429.182.577.577,0,0,1-.357-.121.786.786,0,0,1-.247-.33l-.572-1.331h-3.278l-.572,1.342a.677.677,0,0,1-.236.325.56.56,0,0,1-.93-.457.728.728,0,0,1,.033-.209L187.848,3.7a.73.73,0,0,1,.264-.341.576.576,0,0,1,.4-.1.644.644,0,0,1,.368.115.652.652,0,0,1,.247.325Zm-4.477-2.134h2.2l-1.111-2.574Zm10.8-4.334a.589.589,0,0,1,.341.561.745.745,0,0,1-.165.451.543.543,0,0,1-.451.231.793.793,0,0,1-.374-.1,2.71,2.71,0,0,0-1.166-.253A2.674,2.674,0,0,0,195,4.889a2.2,2.2,0,0,0-.88.913,2.863,2.863,0,0,0-.308,1.347,2.606,2.606,0,0,0,.7,1.969,2.827,2.827,0,0,0,3,.418.884.884,0,0,1,.352-.088.6.6,0,0,1,.484.242.714.714,0,0,1,.165.451.6.6,0,0,1-.088.319.573.573,0,0,1-.253.22,4.028,4.028,0,0,1-1.826.429,4.321,4.321,0,0,1-1.98-.457,3.513,3.513,0,0,1-1.441-1.347,4.091,4.091,0,0,1-.539-2.156,3.97,3.97,0,0,1,.512-2.013A3.631,3.631,0,0,1,194.3,3.746a4.123,4.123,0,0,1,2.035-.5A3.917,3.917,0,0,1,198.155,3.674Zm8.591,3.476a4.175,4.175,0,0,1-.484,2,3.707,3.707,0,0,1-1.337,1.436,3.753,3.753,0,0,1-3.839,0,3.666,3.666,0,0,1-1.331-1.436,4.214,4.214,0,0,1-.479-2,4.214,4.214,0,0,1,.479-2,3.666,3.666,0,0,1,1.331-1.436,3.753,3.753,0,0,1,3.839,0,3.707,3.707,0,0,1,1.337,1.436A4.175,4.175,0,0,1,206.746,7.15Zm-1.43,0a2.969,2.969,0,0,0-.3-1.336,2.4,2.4,0,0,0-.825-.952,2.2,2.2,0,0,0-2.382-.005,2.324,2.324,0,0,0-.814.951,3.051,3.051,0,0,0-.292,1.342A3.051,3.051,0,0,0,201,8.492a2.324,2.324,0,0,0,.814.951,2.2,2.2,0,0,0,2.382-.005,2.4,2.4,0,0,0,.825-.951A2.969,2.969,0,0,0,205.316,7.15Zm7.315-.418a2.215,2.215,0,0,1,.951.7,1.929,1.929,0,0,1,.368,1.221,2.063,2.063,0,0,1-.748,1.826,3.056,3.056,0,0,1-1.782.517h-2.739a.658.658,0,0,1-.671-.671V3.971a.658.658,0,0,1,.671-.671h2.772q2.09,0,2.09,1.958a1.619,1.619,0,0,1-.236.874A1.637,1.637,0,0,1,212.631,6.732ZM212.114,5.5a.919.919,0,0,0-.225-.677.855.855,0,0,0-.632-.226h-1.815V6.314h1.848a.842.842,0,0,0,.577-.22A.755.755,0,0,0,212.114,5.5Zm-.693,4.235a1.131,1.131,0,0,0,.809-.275,1.052,1.052,0,0,0,.292-.8.9.9,0,0,0-.341-.847,1.64,1.64,0,0,0-.836-.2h-1.9V9.735Zm9.108-5.786a.735.735,0,0,1-.121.407l-2.3,3.289v2.684a.66.66,0,0,1-.187.479.606.606,0,0,1-.451.193.636.636,0,0,1-.467-.193.65.65,0,0,1-.192-.479V7.491l-2.288-3.036a.865.865,0,0,1-.2-.517.6.6,0,0,1,.226-.478.727.727,0,0,1,.479-.193.666.666,0,0,1,.539.308L217.5,6.248,219.319,3.6a.665.665,0,0,1,.55-.33.633.633,0,0,1,.462.2A.658.658,0,0,1,220.529,3.949Zm8.69,2.783a2.215,2.215,0,0,1,.951.7,1.929,1.929,0,0,1,.368,1.221,2.063,2.063,0,0,1-.748,1.826,3.056,3.056,0,0,1-1.782.517H225.27a.658.658,0,0,1-.671-.671V3.971a.658.658,0,0,1,.671-.671h2.772q2.09,0,2.09,1.958a1.619,1.619,0,0,1-.236.874A1.637,1.637,0,0,1,229.219,6.732ZM228.7,5.5a.919.919,0,0,0-.225-.677.855.855,0,0,0-.632-.226h-1.815V6.314h1.848a.842.842,0,0,0,.577-.22A.755.755,0,0,0,228.7,5.5Zm-.693,4.235a1.131,1.131,0,0,0,.809-.275,1.052,1.052,0,0,0,.292-.8.9.9,0,0,0-.341-.847,1.64,1.64,0,0,0-.836-.2h-1.9V9.735Zm9.834.187a.648.648,0,0,1,.226.231.586.586,0,0,1,.082.3.568.568,0,0,1-.132.363.621.621,0,0,1-.506.2.988.988,0,0,1-.484-.121,1.931,1.931,0,0,1-.792-1.837.8.8,0,0,0-.258-.627,1.079,1.079,0,0,0-.742-.231h-2.057v2.134a.72.72,0,0,1-.16.484A.529.529,0,0,1,232.6,11a.853.853,0,0,1-.556-.193.594.594,0,0,1-.236-.479V3.971a.658.658,0,0,1,.671-.671h3.168a2.039,2.039,0,0,1,1.078.308,2.273,2.273,0,0,1,.809.847,2.429,2.429,0,0,1,.3,1.21,2.145,2.145,0,0,1-.3,1.072,2.367,2.367,0,0,1-.77.831,1.685,1.685,0,0,1,.759,1.3,1.849,1.849,0,0,1,.033.341,3.5,3.5,0,0,0,.088.49A.363.363,0,0,0,237.843,9.922Zm-2.255-2.86a.548.548,0,0,0,.385-.187,1.42,1.42,0,0,0,.308-.5A1.863,1.863,0,0,0,236.4,5.7a1.319,1.319,0,0,0-.121-.567,1.161,1.161,0,0,0-.308-.413.6.6,0,0,0-.385-.154h-2.409v2.5Zm10.747.088a4.175,4.175,0,0,1-.484,2,3.707,3.707,0,0,1-1.337,1.436,3.753,3.753,0,0,1-3.839,0,3.666,3.666,0,0,1-1.331-1.436,4.214,4.214,0,0,1-.479-2,4.214,4.214,0,0,1,.479-2,3.666,3.666,0,0,1,1.331-1.436,3.753,3.753,0,0,1,3.839,0,3.707,3.707,0,0,1,1.337,1.436A4.175,4.175,0,0,1,246.335,7.15Zm-1.43,0a2.969,2.969,0,0,0-.3-1.336,2.4,2.4,0,0,0-.825-.952,2.2,2.2,0,0,0-2.382-.005,2.324,2.324,0,0,0-.814.951A3.051,3.051,0,0,0,240.3,7.15a3.051,3.051,0,0,0,.292,1.342,2.324,2.324,0,0,0,.814.951,2.2,2.2,0,0,0,2.382-.005,2.4,2.4,0,0,0,.825-.951A2.969,2.969,0,0,0,244.9,7.15Zm8.679,2.992a.74.74,0,0,1,.055.264.623.623,0,0,1-.187.467.6.6,0,0,1-.429.182.577.577,0,0,1-.357-.121.786.786,0,0,1-.247-.33l-.572-1.331h-3.278L248,10.615a.677.677,0,0,1-.236.325.56.56,0,0,1-.93-.457.728.728,0,0,1,.033-.209L249.6,3.7a.73.73,0,0,1,.264-.341.576.576,0,0,1,.4-.1.644.644,0,0,1,.368.115.652.652,0,0,1,.247.325Zm-4.477-2.134h2.2L250.2,5.434ZM257.874,3.3a3.054,3.054,0,0,1,1.776.512A3.252,3.252,0,0,1,260.784,5.2a4.737,4.737,0,0,1,.39,1.952,4.737,4.737,0,0,1-.39,1.953,3.252,3.252,0,0,1-1.133,1.386,3.054,3.054,0,0,1-1.776.512h-2.629a.658.658,0,0,1-.671-.671V3.971a.658.658,0,0,1,.671-.671Zm-.11,6.435A1.674,1.674,0,0,0,259.249,9a3.238,3.238,0,0,0,.495-1.854,3.211,3.211,0,0,0-.5-1.853,1.677,1.677,0,0,0-1.479-.732h-1.815v5.17ZM268.28,3.3a.561.561,0,0,1,.429.176.618.618,0,0,1,.165.44v6.413A.658.658,0,0,1,268.2,11a.951.951,0,0,1-.3-.05.428.428,0,0,1-.215-.137l-4.037-5.126v4.7a.607.607,0,0,1-.171.44.592.592,0,0,1-.445.176.561.561,0,0,1-.429-.176.618.618,0,0,1-.165-.44V3.971a.658.658,0,0,1,.671-.671.842.842,0,0,1,.324.066.522.522,0,0,1,.237.176l4,5.1V3.916a.607.607,0,0,1,.171-.44A.579.579,0,0,1,268.28,3.3Zm8.283,6.842a.74.74,0,0,1,.055.264.623.623,0,0,1-.187.467.6.6,0,0,1-.429.182.577.577,0,0,1-.358-.121.787.787,0,0,1-.247-.33l-.572-1.331h-3.278l-.572,1.342a.677.677,0,0,1-.237.325.56.56,0,0,1-.93-.457.728.728,0,0,1,.033-.209L272.581,3.7a.73.73,0,0,1,.264-.341.576.576,0,0,1,.4-.1.644.644,0,0,1,.368.115.652.652,0,0,1,.247.325Zm-4.477-2.134h2.2l-1.111-2.574ZM283.3,9.988a.66.66,0,0,1,.132.407.607.607,0,0,1-.209.473.645.645,0,0,1-.99-.1L280.27,8.162l-1.9,2.585a.655.655,0,0,1-.55.308.571.571,0,0,1-.418-.176.559.559,0,0,1-.176-.407.714.714,0,0,1,.165-.451l2.123-2.871-2.123-2.816a.612.612,0,0,1-.143-.4.629.629,0,0,1,.209-.473.645.645,0,0,1,1,.088l1.936,2.574,1.892-2.519a.81.81,0,0,1,.253-.236.568.568,0,0,1,.286-.082.582.582,0,0,1,.429.193.6.6,0,0,1,.187.424.641.641,0,0,1-.143.4L281.15,7.128Z" transform="translate(33 83)" fill="#6e6e6e"/>
  </g>
</svg>
