<svg xmlns="http://www.w3.org/2000/svg" xmlns:xlink="http://www.w3.org/1999/xlink" width="714" height="43" viewBox="0 0 714 43">
  <defs>
    <clipPath id="clip-a_example">
      <rect width="714" height="43"/>
    </clipPath>
  </defs>
  <g id="a_example" data-name="a example" clip-path="url(#clip-a_example)">
    <path id="Path_19" data-name="Path 19" d="M76.2,8.257a1.536,1.536,0,0,1-.253.851l-4.807,6.877V21.6a1.379,1.379,0,0,1-.391,1,1.267,1.267,0,0,1-.943.4,1.331,1.331,0,0,1-.978-.4,1.358,1.358,0,0,1-.4-1V15.663L63.638,9.315a1.809,1.809,0,0,1-.414-1.081,1.263,1.263,0,0,1,.472-1,1.519,1.519,0,0,1,1-.4,1.393,1.393,0,0,1,1.127.644l4.048,5.589,3.795-5.543a1.39,1.39,0,0,1,1.15-.69,1.324,1.324,0,0,1,.966.414A1.377,1.377,0,0,1,76.2,8.257ZM92.48,14.95a8.73,8.73,0,0,1-1.012,4.175,7.75,7.75,0,0,1-2.795,3,7.847,7.847,0,0,1-8.027,0,7.666,7.666,0,0,1-2.783-3,8.811,8.811,0,0,1-1-4.175,8.811,8.811,0,0,1,1-4.175,7.666,7.666,0,0,1,2.783-3,7.847,7.847,0,0,1,8.027,0,7.75,7.75,0,0,1,2.795,3A8.73,8.73,0,0,1,92.48,14.95Zm-2.99,0a6.208,6.208,0,0,0-.621-2.795,5.012,5.012,0,0,0-1.725-1.99,4.609,4.609,0,0,0-4.98-.012,4.859,4.859,0,0,0-1.7,1.99,6.38,6.38,0,0,0-.609,2.806,6.38,6.38,0,0,0,.609,2.806,4.859,4.859,0,0,0,1.7,1.99,4.609,4.609,0,0,0,4.98-.012,5.012,5.012,0,0,0,1.725-1.99A6.208,6.208,0,0,0,89.49,14.95Zm17.066-8.073a1.265,1.265,0,0,1,.966.391,1.417,1.417,0,0,1,.368,1.012v8.326a6.932,6.932,0,0,1-.805,3.381,5.808,5.808,0,0,1-2.254,2.3,7.061,7.061,0,0,1-6.635,0,5.786,5.786,0,0,1-2.266-2.3,6.932,6.932,0,0,1-.805-3.381V8.28a1.339,1.339,0,0,1,.414-1,1.455,1.455,0,0,1,1.058-.4,1.394,1.394,0,0,1,1.38,1.4v8.326a3.955,3.955,0,0,0,.483,1.967,3.37,3.37,0,0,0,1.3,1.323,3.526,3.526,0,0,0,1.76.46,3.875,3.875,0,0,0,1.852-.46,3.517,3.517,0,0,0,1.38-1.323,3.747,3.747,0,0,0,.518-1.967V8.28a1.473,1.473,0,0,1,.345-1.012A1.193,1.193,0,0,1,106.556,6.877Zm17.411,13.869a1.355,1.355,0,0,1,.472.483,1.226,1.226,0,0,1,.173.621,1.188,1.188,0,0,1-.276.759,1.3,1.3,0,0,1-1.058.414,2.065,2.065,0,0,1-1.012-.253q-1.656-.943-1.656-3.841a1.67,1.67,0,0,0-.541-1.311,2.255,2.255,0,0,0-1.552-.483h-4.3V21.6a1.505,1.505,0,0,1-.333,1.012A1.106,1.106,0,0,1,113,23a1.784,1.784,0,0,1-1.161-.4,1.241,1.241,0,0,1-.494-1V8.3a1.375,1.375,0,0,1,1.4-1.4h6.624a4.263,4.263,0,0,1,2.254.644,4.753,4.753,0,0,1,1.691,1.771,5.079,5.079,0,0,1,.632,2.53,4.485,4.485,0,0,1-.621,2.243,4.948,4.948,0,0,1-1.61,1.736,3.524,3.524,0,0,1,1.587,2.714,3.867,3.867,0,0,1,.069.713,7.326,7.326,0,0,0,.184,1.024A.758.758,0,0,0,123.967,20.746Zm-4.715-5.98a1.145,1.145,0,0,0,.805-.391,2.968,2.968,0,0,0,.644-1.046,3.9,3.9,0,0,0,.253-1.415,2.759,2.759,0,0,0-.253-1.184,2.427,2.427,0,0,0-.644-.863,1.257,1.257,0,0,0-.805-.322h-5.037v5.221Zm23.207,5.543a1.4,1.4,0,0,1,1,.379,1.283,1.283,0,0,1,.4.978,1.256,1.256,0,0,1-.4.955,1.4,1.4,0,0,1-1,.379h-7.475a1.375,1.375,0,0,1-1.4-1.4V8.3a1.339,1.339,0,0,1,.414-1,1.455,1.455,0,0,1,1.058-.4,1.369,1.369,0,0,1,.989.4,1.339,1.339,0,0,1,.414,1V20.309Zm6.923,1.288a1.3,1.3,0,0,1-.437,1,1.448,1.448,0,0,1-1.012.4,1.387,1.387,0,0,1-1.023-.4,1.358,1.358,0,0,1-.4-1V8.3a1.339,1.339,0,0,1,.414-1,1.455,1.455,0,0,1,1.058-.4,1.369,1.369,0,0,1,.989.4,1.339,1.339,0,0,1,.414,1ZM165.045,6.9a1.173,1.173,0,0,1,.9.368,1.293,1.293,0,0,1,.345.92V21.6a1.375,1.375,0,0,1-1.4,1.4,1.988,1.988,0,0,1-.633-.1.9.9,0,0,1-.449-.288l-8.441-10.718v9.821a1.27,1.27,0,0,1-.357.92,1.239,1.239,0,0,1-.932.368,1.173,1.173,0,0,1-.9-.368,1.293,1.293,0,0,1-.345-.92V8.3a1.375,1.375,0,0,1,1.4-1.4,1.76,1.76,0,0,1,.678.138,1.092,1.092,0,0,1,.494.368l8.372,10.672V8.188a1.27,1.27,0,0,1,.356-.92A1.21,1.21,0,0,1,165.045,6.9Zm17.02,13.708a1.642,1.642,0,0,1,.23.448,1.51,1.51,0,0,1,.092.495,1.32,1.32,0,0,1-.471,1.035,1.606,1.606,0,0,1-1.092.414,1.27,1.27,0,0,1-.575-.138,1.256,1.256,0,0,1-.46-.391L174.8,15.893l-2.185,2.093V21.6a1.348,1.348,0,0,1-.4,1.012,1.439,1.439,0,0,1-1.046.391,1.387,1.387,0,0,1-1.023-.4,1.358,1.358,0,0,1-.4-1V8.3a1.339,1.339,0,0,1,.414-1,1.455,1.455,0,0,1,1.058-.4,1.34,1.34,0,0,1,1.4,1.4v6.256l7.36-7.245a1.583,1.583,0,0,1,1.127-.529,1.132,1.132,0,0,1,.9.437,1.41,1.41,0,0,1,.368.92,1.253,1.253,0,0,1-.414.9l-5.014,4.784ZM202.9,6.9a1.4,1.4,0,0,1,1.035.391,1.369,1.369,0,0,1,.391,1.012V21.6a1.339,1.339,0,0,1-.414,1,1.455,1.455,0,0,1-1.058.4,1.369,1.369,0,0,1-.989-.4,1.339,1.339,0,0,1-.414-1V16.238h-7.337V21.6a1.3,1.3,0,0,1-.437,1,1.448,1.448,0,0,1-1.012.4,1.387,1.387,0,0,1-1.023-.4,1.358,1.358,0,0,1-.4-1V8.3a1.339,1.339,0,0,1,.414-1,1.455,1.455,0,0,1,1.058-.4,1.369,1.369,0,0,1,.989.4,1.339,1.339,0,0,1,.414,1v5.29h7.337V8.3a1.3,1.3,0,0,1,.437-1A1.448,1.448,0,0,1,202.9,6.9Zm13.984,13.455a1.358,1.358,0,0,1,1,.4,1.279,1.279,0,0,1,.4.931,1.22,1.22,0,0,1-.4.943,1.427,1.427,0,0,1-1,.368h-7.7a1.375,1.375,0,0,1-1.4-1.4V8.3a1.375,1.375,0,0,1,1.4-1.4h7.7a1.4,1.4,0,0,1,1,.379,1.283,1.283,0,0,1,.4.977,1.2,1.2,0,0,1-.391.931,1.444,1.444,0,0,1-1.012.357h-6.233v3.91h5.2a1.4,1.4,0,0,1,1,.379,1.283,1.283,0,0,1,.4.978,1.2,1.2,0,0,1-.391.931,1.444,1.444,0,0,1-1.012.357h-5.2v4.255Zm16.675.391a1.355,1.355,0,0,1,.471.483,1.226,1.226,0,0,1,.173.621,1.188,1.188,0,0,1-.276.759,1.3,1.3,0,0,1-1.058.414,2.065,2.065,0,0,1-1.012-.253q-1.656-.943-1.656-3.841a1.669,1.669,0,0,0-.54-1.311,2.255,2.255,0,0,0-1.553-.483h-4.3V21.6a1.505,1.505,0,0,1-.334,1.012,1.106,1.106,0,0,1-.885.391,1.784,1.784,0,0,1-1.161-.4,1.241,1.241,0,0,1-.494-1V8.3a1.375,1.375,0,0,1,1.4-1.4h6.624a4.263,4.263,0,0,1,2.254.644,4.753,4.753,0,0,1,1.691,1.771,5.079,5.079,0,0,1,.632,2.53,4.485,4.485,0,0,1-.621,2.243,4.948,4.948,0,0,1-1.61,1.736,3.524,3.524,0,0,1,1.587,2.714,3.866,3.866,0,0,1,.069.713,7.324,7.324,0,0,0,.184,1.024A.758.758,0,0,0,233.562,20.746Zm-4.715-5.98a1.145,1.145,0,0,0,.8-.391,2.968,2.968,0,0,0,.644-1.046,3.9,3.9,0,0,0,.253-1.415,2.759,2.759,0,0,0-.253-1.184,2.427,2.427,0,0,0-.644-.863,1.257,1.257,0,0,0-.8-.322H223.81v5.221Zm17,5.589a1.358,1.358,0,0,1,1,.4,1.279,1.279,0,0,1,.4.931,1.22,1.22,0,0,1-.4.943,1.427,1.427,0,0,1-1,.368h-7.7a1.375,1.375,0,0,1-1.4-1.4V8.3a1.375,1.375,0,0,1,1.4-1.4h7.7a1.4,1.4,0,0,1,1,.379,1.283,1.283,0,0,1,.4.977,1.2,1.2,0,0,1-.391.931,1.444,1.444,0,0,1-1.012.357h-6.233v3.91h5.2a1.4,1.4,0,0,1,1,.379,1.283,1.283,0,0,1,.4.978,1.2,1.2,0,0,1-.391.931,1.444,1.444,0,0,1-1.012.357h-5.2v4.255Z" transform="translate(258 7)" fill="#888"/>
    <path id="Path_18" data-name="Path 18" d="M186.072,28.8a1.315,1.315,0,0,1,.7,1.248,2,2,0,0,1-.528,1.344,1.465,1.465,0,0,1-1.072.608,1.687,1.687,0,0,1-.736-.208q-.416-.208-.864-.464l-10.4-6.112a1.417,1.417,0,0,1-.576-.624,1.935,1.935,0,0,1-.192-.848,1.905,1.905,0,0,1,.192-.864,1.437,1.437,0,0,1,.576-.608l10.4-5.984a3.215,3.215,0,0,1,1.472-.544,1.614,1.614,0,0,1,1.2.624,1.929,1.929,0,0,1,.56,1.3,1.282,1.282,0,0,1-.7,1.152l-8.512,4.928Zm18.272-14.24a1.865,1.865,0,0,1,1.376.544,1.905,1.905,0,0,1,.544,1.408V30.048a1.919,1.919,0,0,1-.544,1.392,1.837,1.837,0,0,1-1.376.56,1.812,1.812,0,0,1-1.36-.544,2.013,2.013,0,0,1-.56-1.376,6.939,6.939,0,0,1-5.024,2.24,7.316,7.316,0,0,1-4-1.136,7.964,7.964,0,0,1-2.832-3.152,9.836,9.836,0,0,1-1.04-4.576,10.062,10.062,0,0,1,1.024-4.592,7.868,7.868,0,0,1,2.8-3.168,7.127,7.127,0,0,1,3.92-1.136,7.412,7.412,0,0,1,2.88.56,7.563,7.563,0,0,1,2.272,1.424v-.032a1.919,1.919,0,0,1,.544-1.392A1.837,1.837,0,0,1,204.344,14.56ZM197.88,28.8a4.273,4.273,0,0,0,3.392-1.52,5.644,5.644,0,0,0,1.312-3.824,5.705,5.705,0,0,0-1.312-3.84,4.478,4.478,0,0,0-6.752,0,5.705,5.705,0,0,0-1.312,3.84,5.688,5.688,0,0,0,1.3,3.824A4.226,4.226,0,0,0,197.88,28.8Zm30.5-14.24q3.168,0,4.384,1.936a10.048,10.048,0,0,1,1.216,5.36v8.192a1.919,1.919,0,0,1-.544,1.392,1.971,1.971,0,0,1-2.752,0,1.919,1.919,0,0,1-.544-1.392V21.856a4.852,4.852,0,0,0-.688-2.768,2.714,2.714,0,0,0-2.416-1.008,3.657,3.657,0,0,0-2.8,1.072,3.792,3.792,0,0,0-1.008,2.7v8.192a1.919,1.919,0,0,1-.544,1.392,1.971,1.971,0,0,1-2.752,0,1.919,1.919,0,0,1-.544-1.392V10.272a1.919,1.919,0,0,1,.544-1.392,1.971,1.971,0,0,1,2.752,0,1.919,1.919,0,0,1,.544,1.392v7.072a7.815,7.815,0,0,1,2.192-1.968A5.542,5.542,0,0,1,228.376,14.56Zm18.656,0a2.447,2.447,0,0,1,1.616.544,1.622,1.622,0,0,1,.656,1.28,1.983,1.983,0,0,1-.512,1.488,1.688,1.688,0,0,1-1.216.5,3.193,3.193,0,0,1-1.088-.224q-.1-.032-.432-.128a2.61,2.61,0,0,0-.72-.1,2.844,2.844,0,0,0-1.6.512,3.736,3.736,0,0,0-1.264,1.552,5.714,5.714,0,0,0-.5,2.48v7.584a1.919,1.919,0,0,1-.544,1.392,1.971,1.971,0,0,1-2.752,0,1.919,1.919,0,0,1-.544-1.392V16.832a1.919,1.919,0,0,1,.544-1.392,1.971,1.971,0,0,1,2.752,0,1.919,1.919,0,0,1,.544,1.392v.416a4.848,4.848,0,0,1,2.112-2A6.493,6.493,0,0,1,247.032,14.56Zm19.648,8.48a1.643,1.643,0,0,1-.608,1.248,2.036,2.036,0,0,1-1.344.48h-10.56a4.825,4.825,0,0,0,1.76,2.96,4.92,4.92,0,0,0,3.1,1.072,6.879,6.879,0,0,0,2.048-.24,5.334,5.334,0,0,0,1.168-.512q.432-.272.592-.368a2.441,2.441,0,0,1,1.088-.288,1.571,1.571,0,0,1,1.152.48,1.535,1.535,0,0,1,.48,1.12,2,2,0,0,1-.9,1.568,7.645,7.645,0,0,1-2.4,1.248,9.921,9.921,0,0,1-7.728-.608,7.818,7.818,0,0,1-3.088-3.088,9,9,0,0,1-1.088-4.432,9.811,9.811,0,0,1,1.152-4.832,8.179,8.179,0,0,1,3.04-3.184,7.858,7.858,0,0,1,4.032-1.1,7.475,7.475,0,0,1,3.984,1.152,8.611,8.611,0,0,1,2.992,3.1A8.344,8.344,0,0,1,266.68,23.04Zm-8.1-4.96q-3.712,0-4.384,3.488h8.384v-.224a3.308,3.308,0,0,0-1.312-2.3A4.153,4.153,0,0,0,258.584,18.08Zm19.52-6.368a1.763,1.763,0,0,0-1.536.624,2.283,2.283,0,0,0-.448,1.36v1.5h2.912a1.766,1.766,0,0,1,1.28.5,1.816,1.816,0,0,1,0,2.528,1.766,1.766,0,0,1-1.28.5H276.12V30.048a1.919,1.919,0,0,1-.544,1.392,1.971,1.971,0,0,1-2.752,0,1.919,1.919,0,0,1-.544-1.392V18.72h-1.728a1.766,1.766,0,0,1-1.28-.5,1.816,1.816,0,0,1,0-2.528,1.766,1.766,0,0,1,1.28-.5h1.728V13.728a5.041,5.041,0,0,1,1.648-3.9,6.811,6.811,0,0,1,4.752-1.5,4.245,4.245,0,0,1,2.064.48,1.572,1.572,0,0,1,.88,1.472,1.756,1.756,0,0,1-.448,1.248,1.433,1.433,0,0,1-1.088.48,1.88,1.88,0,0,1-.336-.032l-.368-.064A5.469,5.469,0,0,0,278.1,11.712Zm6.528,9.248a1.855,1.855,0,0,1-1.344-.528,1.7,1.7,0,0,1-.544-1.264,1.6,1.6,0,0,1,.544-1.232,1.921,1.921,0,0,1,1.344-.5h12.832a1.921,1.921,0,0,1,1.344.5,1.6,1.6,0,0,1,.544,1.232,1.7,1.7,0,0,1-.544,1.264,1.855,1.855,0,0,1-1.344.528Zm0,6.208a1.855,1.855,0,0,1-1.344-.528,1.7,1.7,0,0,1-.544-1.264,1.6,1.6,0,0,1,.544-1.232,1.921,1.921,0,0,1,1.344-.5h12.832a1.921,1.921,0,0,1,1.344.5,1.6,1.6,0,0,1,.544,1.232,1.7,1.7,0,0,1-.544,1.264,1.855,1.855,0,0,1-1.344.528Zm17.92-16.032A1.491,1.491,0,0,1,304.216,9.6h.928a1.589,1.589,0,0,1,1.072.32,1.087,1.087,0,0,1,.368.864,2.453,2.453,0,0,1-.1.64l-2.176,6.688a1.376,1.376,0,0,1-1.344,1.056.861.861,0,0,1-.752-.336,1.417,1.417,0,0,1-.176-.976Zm7.04,0A1.512,1.512,0,0,1,311.256,9.6h.928a1.646,1.646,0,0,1,1.072.3,1.039,1.039,0,0,1,.368.848,1.966,1.966,0,0,1-.128.672l-2.176,6.688a1.376,1.376,0,0,1-1.344,1.056q-1.024,0-.928-1.344Zm203.84,0A1.491,1.491,0,0,1,515.1,9.6h.928a1.589,1.589,0,0,1,1.072.32,1.087,1.087,0,0,1,.368.864,2.452,2.452,0,0,1-.1.64l-2.176,6.688a1.376,1.376,0,0,1-1.344,1.056.861.861,0,0,1-.752-.336,1.417,1.417,0,0,1-.176-.976Zm7.04,0A1.512,1.512,0,0,1,522.136,9.6h.928a1.646,1.646,0,0,1,1.072.3,1.039,1.039,0,0,1,.368.848,1.965,1.965,0,0,1-.128.672L522.2,18.112a1.376,1.376,0,0,1-1.344,1.056q-1.024,0-.928-1.344Zm20.352,11.392a1.417,1.417,0,0,1,.576.624,1.935,1.935,0,0,1,.192.848,1.905,1.905,0,0,1-.192.864,1.437,1.437,0,0,1-.576.608l-10.4,5.984a3.215,3.215,0,0,1-1.472.544,1.614,1.614,0,0,1-1.2-.624,1.929,1.929,0,0,1-.56-1.3,1.282,1.282,0,0,1,.7-1.152L536.408,24l-8.48-5.056a1.315,1.315,0,0,1-.7-1.248,2,2,0,0,1,.528-1.344,1.465,1.465,0,0,1,1.072-.608,1.687,1.687,0,0,1,.736.208q.416.208.864.464Z" fill="#6e6e6e"/>
  </g>
</svg>
