<svg xmlns="http://www.w3.org/2000/svg" xmlns:xlink="http://www.w3.org/1999/xlink" width="714" height="43" viewBox="0 0 714 43">
  <defs>
    <clipPath id="clip-img_example">
      <rect width="714" height="43"/>
    </clipPath>
  </defs>
  <g id="img_example" data-name="img example" clip-path="url(#clip-img_example)">
    <path id="Path_16" data-name="Path 16" d="M118.52,28.8a1.315,1.315,0,0,1,.7,1.248,2,2,0,0,1-.528,1.344,1.465,1.465,0,0,1-1.072.608,1.687,1.687,0,0,1-.736-.208q-.416-.208-.864-.464l-10.4-6.112a1.417,1.417,0,0,1-.576-.624,1.935,1.935,0,0,1-.192-.848,1.905,1.905,0,0,1,.192-.864,1.437,1.437,0,0,1,.576-.608l10.4-5.984a3.215,3.215,0,0,1,1.472-.544,1.614,1.614,0,0,1,1.2.624,1.929,1.929,0,0,1,.56,1.3,1.282,1.282,0,0,1-.7,1.152l-8.512,4.928Zm8.032,1.248a1.919,1.919,0,0,1-.544,1.392,1.971,1.971,0,0,1-2.752,0,1.919,1.919,0,0,1-.544-1.392V16.832a1.919,1.919,0,0,1,.544-1.392,1.971,1.971,0,0,1,2.752,0,1.919,1.919,0,0,1,.544,1.392ZM124.6,12.8a2.542,2.542,0,0,1-1.536-.352,1.5,1.5,0,0,1-.448-1.248v-.608a1.451,1.451,0,0,1,.48-1.248,3.6,3.6,0,0,1,3.1,0,1.5,1.5,0,0,1,.448,1.248V11.2a1.47,1.47,0,0,1-.464,1.264A2.794,2.794,0,0,1,124.6,12.8Zm25.632,1.76q3.168,0,4.384,1.936a10.048,10.048,0,0,1,1.216,5.36v8.192a1.919,1.919,0,0,1-.544,1.392,1.971,1.971,0,0,1-2.752,0,1.919,1.919,0,0,1-.544-1.392V21.856a4.852,4.852,0,0,0-.688-2.768,2.714,2.714,0,0,0-2.416-1.008,3.657,3.657,0,0,0-2.8,1.072,3.792,3.792,0,0,0-1.008,2.7v8.192a1.919,1.919,0,0,1-.544,1.392,1.971,1.971,0,0,1-2.752,0,1.919,1.919,0,0,1-.544-1.392V21.856a4.852,4.852,0,0,0-.688-2.768,2.714,2.714,0,0,0-2.416-1.008,3.657,3.657,0,0,0-2.8,1.072,3.792,3.792,0,0,0-1.008,2.7v8.192a1.919,1.919,0,0,1-.544,1.392,1.971,1.971,0,0,1-2.752,0,1.919,1.919,0,0,1-.544-1.392V16.832a1.919,1.919,0,0,1,.544-1.392,1.971,1.971,0,0,1,2.752,0,1.919,1.919,0,0,1,.544,1.392v.512a7.815,7.815,0,0,1,2.192-1.968,5.542,5.542,0,0,1,2.96-.816q4.032,0,5.152,3.52a7.536,7.536,0,0,1,2.224-2.432A5.576,5.576,0,0,1,150.232,14.56Zm23.936,0a1.865,1.865,0,0,1,1.376.544,1.905,1.905,0,0,1,.544,1.408v14.24q0,3.9-2.416,5.776a9.71,9.71,0,0,1-6.128,1.872,15.028,15.028,0,0,1-2.64-.32,11.634,11.634,0,0,1-2.384-.64q-1.568-.672-1.568-1.856a1.644,1.644,0,0,1,.1-.512A1.983,1.983,0,0,1,161.7,34a1.589,1.589,0,0,1,1.008-.368,1.91,1.91,0,0,1,.608.1q.128.032,1.584.592a7.436,7.436,0,0,0,2.64.56,5.554,5.554,0,0,0,3.536-.944,3.24,3.24,0,0,0,1.168-2.672V29.728a6.377,6.377,0,0,1-2.128,1.792,6.14,6.14,0,0,1-3.056.8,7.613,7.613,0,0,1-4.08-1.136,7.957,7.957,0,0,1-2.9-3.152,9.713,9.713,0,0,1-1.056-4.576,9.933,9.933,0,0,1,1.04-4.592A7.9,7.9,0,0,1,162.92,15.7a7.4,7.4,0,0,1,4.016-1.136,6.967,6.967,0,0,1,3.04.672,7.15,7.15,0,0,1,2.272,1.632v-.352a1.919,1.919,0,0,1,.544-1.392A1.837,1.837,0,0,1,174.168,14.56ZM167.544,28.8a4.487,4.487,0,0,0,3.5-1.52,5.521,5.521,0,0,0,1.36-3.824,5.581,5.581,0,0,0-1.36-3.84,4.466,4.466,0,0,0-3.5-1.536,4.418,4.418,0,0,0-3.488,1.536,5.621,5.621,0,0,0-1.344,3.84,5.561,5.561,0,0,0,1.344,3.824A4.439,4.439,0,0,0,167.544,28.8Zm20.672.544a1.555,1.555,0,0,1-.288-.96,1.82,1.82,0,0,1,1.76-1.7,1.805,1.805,0,0,1,1.28.608,6.749,6.749,0,0,0,2,1.472,5.963,5.963,0,0,0,2.512.48q2.5-.1,2.5-1.888a1.53,1.53,0,0,0-.848-1.408,11.968,11.968,0,0,0-2.64-.96,22.884,22.884,0,0,1-3.024-1.024,5.35,5.35,0,0,1-2.016-1.552,4.3,4.3,0,0,1-.848-2.8,4.236,4.236,0,0,1,.88-2.672,5.792,5.792,0,0,1,2.3-1.76,7.452,7.452,0,0,1,3.024-.624,9.293,9.293,0,0,1,3.264.608,5.677,5.677,0,0,1,2.56,1.792,1.78,1.78,0,0,1,.416,1.152,1.486,1.486,0,0,1-.608,1.216,1.612,1.612,0,0,1-1.024.352,1.559,1.559,0,0,1-1.152-.448,4.065,4.065,0,0,0-1.488-1.12,4.92,4.92,0,0,0-2.064-.416q-2.432,0-2.432,1.76a1.506,1.506,0,0,0,.448,1.136,3.061,3.061,0,0,0,1.136.672q.688.24,1.936.592a21.161,21.161,0,0,1,2.88.992,4.943,4.943,0,0,1,1.952,1.568,4.492,4.492,0,0,1,.8,2.784,4.268,4.268,0,0,1-.928,2.736,5.874,5.874,0,0,1-2.384,1.776,7.7,7.7,0,0,1-2.992.608,10.837,10.837,0,0,1-3.936-.7A6.541,6.541,0,0,1,188.216,29.344ZM213.528,14.56a2.447,2.447,0,0,1,1.616.544,1.622,1.622,0,0,1,.656,1.28,1.983,1.983,0,0,1-.512,1.488,1.688,1.688,0,0,1-1.216.5,3.193,3.193,0,0,1-1.088-.224q-.1-.032-.432-.128a2.61,2.61,0,0,0-.72-.1,2.844,2.844,0,0,0-1.6.512,3.736,3.736,0,0,0-1.264,1.552,5.714,5.714,0,0,0-.5,2.48v7.584a1.919,1.919,0,0,1-.544,1.392,1.971,1.971,0,0,1-2.752,0,1.919,1.919,0,0,1-.544-1.392V16.832a1.919,1.919,0,0,1,.544-1.392,1.971,1.971,0,0,1,2.752,0,1.919,1.919,0,0,1,.544,1.392v.416a4.848,4.848,0,0,1,2.112-2A6.493,6.493,0,0,1,213.528,14.56Zm11.744,0a9.689,9.689,0,0,1,4.384.848,2.542,2.542,0,0,1,1.664,2.256A1.933,1.933,0,0,1,230.9,18.9a1.32,1.32,0,0,1-1.088.528,2.044,2.044,0,0,1-.832-.144,2.987,2.987,0,0,1-.624-.384,4.451,4.451,0,0,0-.592-.4,4.015,4.015,0,0,0-.944-.288,5.265,5.265,0,0,0-1.008-.128,4.838,4.838,0,0,0-3.76,1.488,5.538,5.538,0,0,0-1.36,3.888,5.483,5.483,0,0,0,1.376,3.824,4.536,4.536,0,0,0,3.52,1.52,5.445,5.445,0,0,0,2.336-.384,4.327,4.327,0,0,0,.528-.336,3.632,3.632,0,0,1,.624-.368,1.73,1.73,0,0,1,.7-.128,1.62,1.62,0,0,1,1.264.512,1.879,1.879,0,0,1,.464,1.312,1.853,1.853,0,0,1-.9,1.44,6.978,6.978,0,0,1-2.368,1.072,11.914,11.914,0,0,1-3.136.4,8.1,8.1,0,0,1-4.336-1.152,7.747,7.747,0,0,1-2.9-3.184,9.918,9.918,0,0,1-1.024-4.528,9.664,9.664,0,0,1,1.072-4.608A7.887,7.887,0,0,1,220.92,15.7,8.383,8.383,0,0,1,225.272,14.56Zm10.432,6.4a1.855,1.855,0,0,1-1.344-.528,1.7,1.7,0,0,1-.544-1.264,1.6,1.6,0,0,1,.544-1.232,1.921,1.921,0,0,1,1.344-.5h12.832a1.921,1.921,0,0,1,1.344.5,1.6,1.6,0,0,1,.544,1.232,1.7,1.7,0,0,1-.544,1.264,1.855,1.855,0,0,1-1.344.528Zm0,6.208a1.855,1.855,0,0,1-1.344-.528,1.7,1.7,0,0,1-.544-1.264,1.6,1.6,0,0,1,.544-1.232,1.921,1.921,0,0,1,1.344-.5h12.832a1.921,1.921,0,0,1,1.344.5,1.6,1.6,0,0,1,.544,1.232,1.7,1.7,0,0,1-.544,1.264,1.855,1.855,0,0,1-1.344.528Zm17.92-16.032A1.491,1.491,0,0,1,255.288,9.6h.928a1.589,1.589,0,0,1,1.072.32,1.087,1.087,0,0,1,.368.864,2.453,2.453,0,0,1-.1.64l-2.176,6.688a1.376,1.376,0,0,1-1.344,1.056.861.861,0,0,1-.752-.336,1.417,1.417,0,0,1-.176-.976Zm7.04,0A1.512,1.512,0,0,1,262.328,9.6h.928a1.646,1.646,0,0,1,1.072.3,1.039,1.039,0,0,1,.368.848,1.966,1.966,0,0,1-.128.672l-2.176,6.688a1.376,1.376,0,0,1-1.344,1.056q-1.024,0-.928-1.344Zm320.32,0A1.491,1.491,0,0,1,582.648,9.6h.928a1.589,1.589,0,0,1,1.072.32,1.087,1.087,0,0,1,.368.864,2.452,2.452,0,0,1-.1.64l-2.176,6.688a1.376,1.376,0,0,1-1.344,1.056.861.861,0,0,1-.752-.336,1.417,1.417,0,0,1-.176-.976Zm7.04,0A1.512,1.512,0,0,1,589.688,9.6h.928a1.647,1.647,0,0,1,1.072.3,1.039,1.039,0,0,1,.368.848,1.966,1.966,0,0,1-.128.672l-2.176,6.688a1.376,1.376,0,0,1-1.344,1.056q-1.024,0-.928-1.344Zm20.352,11.392a1.417,1.417,0,0,1,.576.624,1.935,1.935,0,0,1,.192.848,1.905,1.905,0,0,1-.192.864,1.437,1.437,0,0,1-.576.608l-10.4,5.984A3.215,3.215,0,0,1,596.5,32a1.614,1.614,0,0,1-1.2-.624,1.929,1.929,0,0,1-.56-1.3,1.282,1.282,0,0,1,.7-1.152L603.96,24l-8.48-5.056a1.315,1.315,0,0,1-.7-1.248,2,2,0,0,1,.528-1.344,1.465,1.465,0,0,1,1.072-.608,1.687,1.687,0,0,1,.736.208q.416.208.864.464Z" transform="translate(-7)" fill="#6e6e6e"/>
    <path id="Path_17" data-name="Path 17" d="M16.845,20.309a1.4,1.4,0,0,1,1,.379,1.283,1.283,0,0,1,.4.978,1.256,1.256,0,0,1-.4.955,1.4,1.4,0,0,1-1,.379H9.37a1.375,1.375,0,0,1-1.4-1.4V8.3a1.339,1.339,0,0,1,.414-1,1.455,1.455,0,0,1,1.058-.4,1.369,1.369,0,0,1,.989.4,1.339,1.339,0,0,1,.414,1V20.309ZM23.767,21.6a1.3,1.3,0,0,1-.437,1,1.448,1.448,0,0,1-1.012.4,1.387,1.387,0,0,1-1.024-.4,1.358,1.358,0,0,1-.4-1V8.3a1.339,1.339,0,0,1,.414-1,1.455,1.455,0,0,1,1.058-.4,1.369,1.369,0,0,1,.989.4,1.339,1.339,0,0,1,.414,1ZM39.431,6.9a1.173,1.173,0,0,1,.9.368,1.293,1.293,0,0,1,.345.92V21.6a1.375,1.375,0,0,1-1.4,1.4,1.988,1.988,0,0,1-.632-.1.9.9,0,0,1-.449-.288L29.748,11.891v9.821a1.27,1.27,0,0,1-.357.92A1.239,1.239,0,0,1,28.46,23a1.173,1.173,0,0,1-.9-.368,1.293,1.293,0,0,1-.345-.92V8.3a1.375,1.375,0,0,1,1.4-1.4,1.76,1.76,0,0,1,.678.138,1.092,1.092,0,0,1,.495.368l8.372,10.672V8.188a1.27,1.27,0,0,1,.356-.92A1.21,1.21,0,0,1,39.431,6.9Zm17.02,13.708a1.641,1.641,0,0,1,.23.448,1.51,1.51,0,0,1,.092.495,1.32,1.32,0,0,1-.471,1.035A1.606,1.606,0,0,1,55.208,23a1.27,1.27,0,0,1-.575-.138,1.256,1.256,0,0,1-.46-.391l-4.991-6.578L47,17.986V21.6a1.348,1.348,0,0,1-.4,1.012A1.439,1.439,0,0,1,45.549,23a1.387,1.387,0,0,1-1.024-.4,1.358,1.358,0,0,1-.4-1V8.3a1.339,1.339,0,0,1,.414-1,1.455,1.455,0,0,1,1.058-.4A1.34,1.34,0,0,1,47,8.3v6.256l7.36-7.245a1.583,1.583,0,0,1,1.127-.529,1.132,1.132,0,0,1,.9.437,1.41,1.41,0,0,1,.368.92,1.253,1.253,0,0,1-.414.9l-5.014,4.784ZM76.207,6.9a1.417,1.417,0,0,1,1.012.368,1.265,1.265,0,0,1,.391.966,1.229,1.229,0,0,1-.391.954,1.444,1.444,0,0,1-1.012.357H72.6V21.6a1.3,1.3,0,0,1-.437,1,1.536,1.536,0,0,1-1.081.4,1.455,1.455,0,0,1-1.058-.4,1.339,1.339,0,0,1-.414-1V9.545H66a1.417,1.417,0,0,1-1.012-.368,1.265,1.265,0,0,1-.391-.966,1.22,1.22,0,0,1,.4-.943A1.427,1.427,0,0,1,66,6.9Zm18.17,8.05a8.73,8.73,0,0,1-1.012,4.175,7.75,7.75,0,0,1-2.795,3,7.847,7.847,0,0,1-8.027,0,7.666,7.666,0,0,1-2.783-3,8.811,8.811,0,0,1-1-4.175,8.811,8.811,0,0,1,1-4.175,7.666,7.666,0,0,1,2.783-3,7.847,7.847,0,0,1,8.027,0,7.75,7.75,0,0,1,2.795,3A8.73,8.73,0,0,1,94.378,14.95Zm-2.99,0a6.208,6.208,0,0,0-.621-2.795,5.012,5.012,0,0,0-1.725-1.99,4.609,4.609,0,0,0-4.98-.012,4.859,4.859,0,0,0-1.7,1.99,6.38,6.38,0,0,0-.609,2.806,6.38,6.38,0,0,0,.609,2.806,4.859,4.859,0,0,0,1.7,1.99,4.609,4.609,0,0,0,4.98-.012,5.012,5.012,0,0,0,1.725-1.99A6.208,6.208,0,0,0,91.387,14.95ZM115.1,8.257a1.536,1.536,0,0,1-.253.851l-4.807,6.877V21.6a1.379,1.379,0,0,1-.391,1,1.267,1.267,0,0,1-.943.4,1.331,1.331,0,0,1-.978-.4,1.358,1.358,0,0,1-.4-1V15.663l-4.784-6.348a1.809,1.809,0,0,1-.414-1.081,1.263,1.263,0,0,1,.472-1,1.519,1.519,0,0,1,1-.4,1.393,1.393,0,0,1,1.127.644l4.048,5.589,3.795-5.543a1.39,1.39,0,0,1,1.15-.69,1.324,1.324,0,0,1,.966.414A1.377,1.377,0,0,1,115.1,8.257Zm16.284,6.693a8.73,8.73,0,0,1-1.012,4.175,7.75,7.75,0,0,1-2.794,3,7.847,7.847,0,0,1-8.027,0,7.666,7.666,0,0,1-2.783-3,8.811,8.811,0,0,1-1-4.175,8.811,8.811,0,0,1,1-4.175,7.666,7.666,0,0,1,2.783-3,7.847,7.847,0,0,1,8.027,0,7.75,7.75,0,0,1,2.794,3A8.73,8.73,0,0,1,131.385,14.95Zm-2.99,0a6.208,6.208,0,0,0-.621-2.795,5.012,5.012,0,0,0-1.725-1.99,4.609,4.609,0,0,0-4.98-.012,4.859,4.859,0,0,0-1.7,1.99,6.38,6.38,0,0,0-.609,2.806,6.38,6.38,0,0,0,.609,2.806,4.859,4.859,0,0,0,1.7,1.99,4.609,4.609,0,0,0,4.98-.012,5.012,5.012,0,0,0,1.725-1.99A6.208,6.208,0,0,0,128.395,14.95Zm17.066-8.073a1.265,1.265,0,0,1,.966.391,1.417,1.417,0,0,1,.368,1.012v8.326a6.932,6.932,0,0,1-.805,3.381,5.807,5.807,0,0,1-2.254,2.3,7.061,7.061,0,0,1-6.635,0,5.786,5.786,0,0,1-2.266-2.3,6.932,6.932,0,0,1-.8-3.381V8.28a1.339,1.339,0,0,1,.414-1,1.455,1.455,0,0,1,1.058-.4,1.394,1.394,0,0,1,1.38,1.4v8.326a3.955,3.955,0,0,0,.483,1.967,3.37,3.37,0,0,0,1.3,1.323,3.526,3.526,0,0,0,1.76.46,3.875,3.875,0,0,0,1.852-.46,3.517,3.517,0,0,0,1.38-1.323,3.747,3.747,0,0,0,.518-1.967V8.28a1.473,1.473,0,0,1,.345-1.012A1.193,1.193,0,0,1,145.461,6.877Zm17.411,13.869a1.355,1.355,0,0,1,.471.483,1.226,1.226,0,0,1,.173.621,1.188,1.188,0,0,1-.276.759,1.3,1.3,0,0,1-1.058.414,2.065,2.065,0,0,1-1.012-.253q-1.656-.943-1.656-3.841a1.669,1.669,0,0,0-.54-1.311,2.255,2.255,0,0,0-1.553-.483h-4.3V21.6a1.505,1.505,0,0,1-.334,1.012A1.106,1.106,0,0,1,151.9,23a1.784,1.784,0,0,1-1.161-.4,1.241,1.241,0,0,1-.494-1V8.3a1.375,1.375,0,0,1,1.4-1.4h6.624a4.263,4.263,0,0,1,2.254.644,4.753,4.753,0,0,1,1.691,1.771,5.079,5.079,0,0,1,.632,2.53,4.485,4.485,0,0,1-.621,2.243,4.948,4.948,0,0,1-1.61,1.736,3.524,3.524,0,0,1,1.587,2.714,3.866,3.866,0,0,1,.069.713,7.324,7.324,0,0,0,.184,1.024A.758.758,0,0,0,162.872,20.746Zm-4.715-5.98a1.145,1.145,0,0,0,.805-.391,2.968,2.968,0,0,0,.644-1.046,3.9,3.9,0,0,0,.253-1.415,2.759,2.759,0,0,0-.253-1.184,2.427,2.427,0,0,0-.644-.863,1.257,1.257,0,0,0-.805-.322H153.12v5.221Zm17.2,6.831a1.3,1.3,0,0,1-.437,1,1.448,1.448,0,0,1-1.012.4,1.387,1.387,0,0,1-1.023-.4,1.358,1.358,0,0,1-.4-1V8.3a1.339,1.339,0,0,1,.414-1,1.455,1.455,0,0,1,1.058-.4,1.369,1.369,0,0,1,.989.4,1.339,1.339,0,0,1,.414,1Zm17.411-14.72a1.408,1.408,0,0,1,1,.4,1.321,1.321,0,0,1,.425,1V21.6a1.359,1.359,0,0,1-1.426,1.4,1.439,1.439,0,0,1-1.047-.391,1.348,1.348,0,0,1-.4-1.012V12.328l-3.795,5.8a1.961,1.961,0,0,1-.529.448,1.068,1.068,0,0,1-.621.149,1.024,1.024,0,0,1-.6-.149,1.962,1.962,0,0,1-.529-.448l-3.795-6V21.6a1.417,1.417,0,0,1-.368,1.012,1.265,1.265,0,0,1-.966.391,1.22,1.22,0,0,1-.943-.4,1.427,1.427,0,0,1-.368-1V8.28a1.332,1.332,0,0,1,.425-.989,1.415,1.415,0,0,1,1.023-.414,1.531,1.531,0,0,1,.69.173,1.335,1.335,0,0,1,.529.448l5.014,7.7,5.152-7.7a1.4,1.4,0,0,1,.494-.448A1.289,1.289,0,0,1,192.771,6.877Zm17.5,14.329a1.548,1.548,0,0,1,.115.552,1.3,1.3,0,0,1-.391.978,1.252,1.252,0,0,1-.9.379,1.206,1.206,0,0,1-.747-.253,1.644,1.644,0,0,1-.518-.69l-1.2-2.783h-6.854l-1.2,2.806a1.415,1.415,0,0,1-.494.679,1.171,1.171,0,0,1-1.944-.955,1.521,1.521,0,0,1,.069-.437l5.727-13.754a1.526,1.526,0,0,1,.552-.713,1.2,1.2,0,0,1,.828-.207,1.347,1.347,0,0,1,.77.242,1.362,1.362,0,0,1,.518.678Zm-9.361-4.462h4.6l-2.323-5.382ZM224.1,14.306a1.32,1.32,0,0,1,.989.4,1.379,1.379,0,0,1,.391,1v4.876a1.379,1.379,0,0,1-.713,1.242,9.176,9.176,0,0,1-4.945,1.4,8.271,8.271,0,0,1-4.209-1.115,8.355,8.355,0,0,1-3.059-3.013,8.21,8.21,0,0,1,0-8.3,8.355,8.355,0,0,1,3.059-3.013A8.271,8.271,0,0,1,219.82,6.67a8.108,8.108,0,0,1,3.956.92,1.248,1.248,0,0,1,.69,1.127,1.455,1.455,0,0,1-.38,1,1.2,1.2,0,0,1-.932.426,1.887,1.887,0,0,1-.759-.184,6.51,6.51,0,0,0-2.576-.529,5.166,5.166,0,0,0-2.714.748,5.57,5.57,0,0,0,0,9.545,5.166,5.166,0,0,0,2.714.747,8.966,8.966,0,0,0,1.38-.115,8.016,8.016,0,0,0,1.288-.3v-2.99h-2.162a1.379,1.379,0,0,1-1-.391,1.416,1.416,0,0,1,0-1.978,1.379,1.379,0,0,1,1-.391Zm13.248,6.049a1.358,1.358,0,0,1,1,.4,1.279,1.279,0,0,1,.4.931,1.22,1.22,0,0,1-.4.943,1.427,1.427,0,0,1-1,.368h-7.7a1.375,1.375,0,0,1-1.4-1.4V8.3a1.375,1.375,0,0,1,1.4-1.4h7.7a1.4,1.4,0,0,1,1,.379,1.283,1.283,0,0,1,.4.977,1.2,1.2,0,0,1-.391.931,1.444,1.444,0,0,1-1.012.357h-6.233v3.91h5.2a1.4,1.4,0,0,1,1,.379,1.283,1.283,0,0,1,.4.978,1.2,1.2,0,0,1-.391.931,1.444,1.444,0,0,1-1.012.357h-5.2v4.255ZM259.495,6.9a1.4,1.4,0,0,1,1.035.391,1.369,1.369,0,0,1,.391,1.012V21.6a1.339,1.339,0,0,1-.414,1,1.455,1.455,0,0,1-1.058.4,1.369,1.369,0,0,1-.989-.4,1.339,1.339,0,0,1-.414-1V16.238h-7.337V21.6a1.3,1.3,0,0,1-.437,1,1.448,1.448,0,0,1-1.012.4,1.387,1.387,0,0,1-1.023-.4,1.358,1.358,0,0,1-.4-1V8.3a1.339,1.339,0,0,1,.414-1,1.455,1.455,0,0,1,1.058-.4,1.369,1.369,0,0,1,.989.4,1.339,1.339,0,0,1,.414,1v5.29h7.337V8.3a1.3,1.3,0,0,1,.437-1A1.448,1.448,0,0,1,259.495,6.9Zm13.984,13.455a1.358,1.358,0,0,1,1,.4,1.279,1.279,0,0,1,.4.931,1.22,1.22,0,0,1-.4.943,1.427,1.427,0,0,1-1,.368h-7.705a1.375,1.375,0,0,1-1.4-1.4V8.3a1.375,1.375,0,0,1,1.4-1.4h7.705a1.4,1.4,0,0,1,1,.379,1.283,1.283,0,0,1,.4.977,1.2,1.2,0,0,1-.391.931,1.444,1.444,0,0,1-1.012.357h-6.233v3.91h5.2a1.4,1.4,0,0,1,1,.379,1.283,1.283,0,0,1,.4.978,1.2,1.2,0,0,1-.391.931,1.444,1.444,0,0,1-1.012.357h-5.2v4.255Zm16.675.391a1.355,1.355,0,0,1,.471.483,1.226,1.226,0,0,1,.173.621,1.188,1.188,0,0,1-.276.759,1.3,1.3,0,0,1-1.058.414,2.065,2.065,0,0,1-1.012-.253q-1.656-.943-1.656-3.841a1.67,1.67,0,0,0-.54-1.311,2.255,2.255,0,0,0-1.552-.483h-4.3V21.6a1.505,1.505,0,0,1-.333,1.012,1.106,1.106,0,0,1-.885.391,1.784,1.784,0,0,1-1.161-.4,1.241,1.241,0,0,1-.495-1V8.3a1.375,1.375,0,0,1,1.4-1.4h6.624a4.263,4.263,0,0,1,2.254.644,4.753,4.753,0,0,1,1.69,1.771,5.079,5.079,0,0,1,.633,2.53,4.485,4.485,0,0,1-.621,2.243,4.948,4.948,0,0,1-1.61,1.736,3.524,3.524,0,0,1,1.587,2.714,3.868,3.868,0,0,1,.069.713,7.331,7.331,0,0,0,.184,1.024A.758.758,0,0,0,290.154,20.746Zm-4.715-5.98a1.145,1.145,0,0,0,.8-.391,2.968,2.968,0,0,0,.644-1.046,3.9,3.9,0,0,0,.253-1.415,2.759,2.759,0,0,0-.253-1.184,2.427,2.427,0,0,0-.644-.863,1.257,1.257,0,0,0-.8-.322H280.4v5.221Zm17,5.589a1.358,1.358,0,0,1,1,.4,1.279,1.279,0,0,1,.4.931,1.22,1.22,0,0,1-.4.943,1.427,1.427,0,0,1-1,.368H294.73a1.375,1.375,0,0,1-1.4-1.4V8.3a1.375,1.375,0,0,1,1.4-1.4h7.705a1.4,1.4,0,0,1,1,.379,1.283,1.283,0,0,1,.4.977,1.2,1.2,0,0,1-.391.931,1.444,1.444,0,0,1-1.012.357H296.2v3.91h5.2a1.4,1.4,0,0,1,1,.379,1.283,1.283,0,0,1,.4.978,1.2,1.2,0,0,1-.391.931,1.444,1.444,0,0,1-1.012.357h-5.2v4.255Z" transform="translate(258 7)" fill="#888"/>
  </g>
</svg>
