<svg xmlns="http://www.w3.org/2000/svg" xmlns:xlink="http://www.w3.org/1999/xlink" width="714" height="43" viewBox="0 0 714 43">
  <defs>
    <clipPath id="clip-P_example">
      <rect width="714" height="43"/>
    </clipPath>
  </defs>
  <g id="P_example" data-name="P example" clip-path="url(#clip-P_example)">
    <path id="Path_14" data-name="Path 14" d="M75.88,28.8a1.315,1.315,0,0,1,.7,1.248,2,2,0,0,1-.528,1.344A1.465,1.465,0,0,1,74.984,32a1.687,1.687,0,0,1-.736-.208q-.416-.208-.864-.464l-10.4-6.112a1.417,1.417,0,0,1-.576-.624,1.935,1.935,0,0,1-.192-.848,1.905,1.905,0,0,1,.192-.864,1.437,1.437,0,0,1,.576-.608l10.4-5.984a3.215,3.215,0,0,1,1.472-.544,1.614,1.614,0,0,1,1.2.624,1.929,1.929,0,0,1,.56,1.3,1.282,1.282,0,0,1-.7,1.152L67.4,23.744ZM89.16,14.56a7.316,7.316,0,0,1,4,1.136,7.965,7.965,0,0,1,2.832,3.152,9.836,9.836,0,0,1,1.04,4.576,10.062,10.062,0,0,1-1.024,4.592,7.868,7.868,0,0,1-2.8,3.168,7.127,7.127,0,0,1-3.92,1.136,6.862,6.862,0,0,1-2.9-.624,7.678,7.678,0,0,1-2.256-1.52v6.272a1.919,1.919,0,0,1-.544,1.392,1.837,1.837,0,0,1-1.376.56,1.865,1.865,0,0,1-1.376-.544,1.905,1.905,0,0,1-.544-1.408V16.832a1.919,1.919,0,0,1,.544-1.392,1.971,1.971,0,0,1,2.752,0,1.919,1.919,0,0,1,.544,1.392v.128a6.625,6.625,0,0,1,2.144-1.68A6.131,6.131,0,0,1,89.16,14.56ZM88.68,28.8a4.22,4.22,0,0,0,3.36-1.536,5.705,5.705,0,0,0,1.312-3.84,5.688,5.688,0,0,0-1.3-3.824,4.226,4.226,0,0,0-3.376-1.52,4.273,4.273,0,0,0-3.392,1.52,5.644,5.644,0,0,0-1.312,3.824,5.705,5.705,0,0,0,1.312,3.84A4.254,4.254,0,0,0,88.68,28.8Zm24.7-6.272a1.417,1.417,0,0,1,.576.624,1.935,1.935,0,0,1,.192.848,1.905,1.905,0,0,1-.192.864,1.437,1.437,0,0,1-.576.608l-10.4,5.984a3.215,3.215,0,0,1-1.472.544,1.614,1.614,0,0,1-1.2-.624,1.929,1.929,0,0,1-.56-1.3,1.282,1.282,0,0,1,.7-1.152L108.968,24l-8.48-5.056a1.315,1.315,0,0,1-.7-1.248,2,2,0,0,1,.528-1.344,1.465,1.465,0,0,1,1.072-.608,1.687,1.687,0,0,1,.736.208q.416.208.864.464ZM595.336,28.8a1.315,1.315,0,0,1,.7,1.248,2,2,0,0,1-.528,1.344A1.465,1.465,0,0,1,594.44,32a1.686,1.686,0,0,1-.736-.208q-.416-.208-.864-.464l-10.4-6.112a1.417,1.417,0,0,1-.576-.624,1.935,1.935,0,0,1-.192-.848,1.905,1.905,0,0,1,.192-.864,1.437,1.437,0,0,1,.576-.608l10.4-5.984a3.215,3.215,0,0,1,1.472-.544,1.614,1.614,0,0,1,1.2.624,1.929,1.929,0,0,1,.56,1.3,1.282,1.282,0,0,1-.7,1.152l-8.512,4.928Zm5.024,7.488a1.751,1.751,0,0,1-1.152-.464,1.439,1.439,0,0,1-.544-1.136,1.7,1.7,0,0,1,.192-.768L611.848,7.328a1.838,1.838,0,0,1,.592-.7,1.4,1.4,0,0,1,.816-.256,1.692,1.692,0,0,1,1.136.464,1.456,1.456,0,0,1,.528,1.136,1.7,1.7,0,0,1-.192.768l-12.96,26.592a1.838,1.838,0,0,1-.592.7A1.4,1.4,0,0,1,600.36,36.288ZM626.792,14.56a7.316,7.316,0,0,1,4,1.136,7.964,7.964,0,0,1,2.832,3.152,9.836,9.836,0,0,1,1.04,4.576,10.061,10.061,0,0,1-1.024,4.592,7.868,7.868,0,0,1-2.8,3.168,7.127,7.127,0,0,1-3.92,1.136,6.862,6.862,0,0,1-2.9-.624,7.678,7.678,0,0,1-2.256-1.52v6.272a1.919,1.919,0,0,1-.544,1.392,1.837,1.837,0,0,1-1.376.56,1.865,1.865,0,0,1-1.376-.544,1.905,1.905,0,0,1-.544-1.408V16.832a1.919,1.919,0,0,1,.544-1.392,1.97,1.97,0,0,1,2.752,0,1.919,1.919,0,0,1,.544,1.392v.128a6.625,6.625,0,0,1,2.144-1.68A6.131,6.131,0,0,1,626.792,14.56Zm-.48,14.24a4.22,4.22,0,0,0,3.36-1.536,5.705,5.705,0,0,0,1.312-3.84,5.688,5.688,0,0,0-1.3-3.824,4.226,4.226,0,0,0-3.376-1.52,4.273,4.273,0,0,0-3.392,1.52,5.644,5.644,0,0,0-1.312,3.824,5.705,5.705,0,0,0,1.312,3.84A4.254,4.254,0,0,0,626.312,28.8Zm24.7-6.272a1.417,1.417,0,0,1,.576.624,1.935,1.935,0,0,1,.192.848,1.905,1.905,0,0,1-.192.864,1.437,1.437,0,0,1-.576.608l-10.4,5.984a3.215,3.215,0,0,1-1.472.544,1.614,1.614,0,0,1-1.2-.624,1.929,1.929,0,0,1-.56-1.3,1.282,1.282,0,0,1,.7-1.152L646.6,24l-8.48-5.056a1.315,1.315,0,0,1-.7-1.248,2,2,0,0,1,.528-1.344,1.465,1.465,0,0,1,1.072-.608,1.687,1.687,0,0,1,.736.208q.416.208.864.464Z" transform="translate(0 -2)" fill="#6e6e6e"/>
    <path id="Path_15" data-name="Path 15" d="M32.726,6.9a1.417,1.417,0,0,1,1.012.368,1.265,1.265,0,0,1,.391.966,1.229,1.229,0,0,1-.391.954,1.444,1.444,0,0,1-1.012.357H29.115V21.6a1.3,1.3,0,0,1-.437,1A1.536,1.536,0,0,1,27.6,23a1.455,1.455,0,0,1-1.058-.4,1.339,1.339,0,0,1-.414-1V9.545H22.514A1.417,1.417,0,0,1,21.5,9.177a1.265,1.265,0,0,1-.391-.966,1.22,1.22,0,0,1,.4-.943,1.427,1.427,0,0,1,1-.368Zm15.479,0a1.4,1.4,0,0,1,1.035.391A1.369,1.369,0,0,1,49.631,8.3V21.6a1.339,1.339,0,0,1-.414,1,1.455,1.455,0,0,1-1.058.4,1.369,1.369,0,0,1-.989-.4,1.339,1.339,0,0,1-.414-1V16.238H39.419V21.6a1.3,1.3,0,0,1-.437,1,1.448,1.448,0,0,1-1.012.4,1.387,1.387,0,0,1-1.024-.4,1.358,1.358,0,0,1-.4-1V8.3a1.339,1.339,0,0,1,.414-1,1.455,1.455,0,0,1,1.058-.4,1.369,1.369,0,0,1,.989.4,1.339,1.339,0,0,1,.414,1v5.29h7.337V8.3a1.3,1.3,0,0,1,.437-1A1.448,1.448,0,0,1,48.205,6.9Zm7.751,14.7a1.3,1.3,0,0,1-.437,1,1.448,1.448,0,0,1-1.012.4,1.387,1.387,0,0,1-1.024-.4,1.358,1.358,0,0,1-.4-1V8.3a1.339,1.339,0,0,1,.414-1,1.455,1.455,0,0,1,1.058-.4,1.369,1.369,0,0,1,.989.4,1.339,1.339,0,0,1,.414,1Zm8.625,1.633a9.614,9.614,0,0,1-2.944-.414,6.815,6.815,0,0,1-2.415-1.4,1.615,1.615,0,0,1-.621-1.219,1.3,1.3,0,0,1,.391-.931,1.267,1.267,0,0,1,.943-.4,1.218,1.218,0,0,1,.782.276,6.771,6.771,0,0,0,1.794,1.1,5.627,5.627,0,0,0,2.07.345A4.142,4.142,0,0,0,66.8,20.01a1.666,1.666,0,0,0,.932-1.426,1.829,1.829,0,0,0-.92-1.622,7.8,7.8,0,0,0-2.921-.885q-5.037-.736-5.037-4.692a4.239,4.239,0,0,1,.759-2.519,4.792,4.792,0,0,1,2.07-1.633A7.324,7.324,0,0,1,64.6,6.67a8.358,8.358,0,0,1,2.725.437,6.609,6.609,0,0,1,2.128,1.15,1.535,1.535,0,0,1,.667,1.219,1.3,1.3,0,0,1-.391.931,1.242,1.242,0,0,1-.92.4,1.009,1.009,0,0,1-.621-.207,6.075,6.075,0,0,0-1.668-.885,5.527,5.527,0,0,0-1.92-.4,3.957,3.957,0,0,0-2.243.541,1.717,1.717,0,0,0,.023,2.909,7.745,7.745,0,0,0,2.564.828,13.3,13.3,0,0,1,3.163.885,4.036,4.036,0,0,1,1.782,1.472,4.522,4.522,0,0,1,.6,2.473,4.129,4.129,0,0,1-.816,2.542A5.249,5.249,0,0,1,67.5,22.643,7.283,7.283,0,0,1,64.581,23.23ZM82.452,21.6a1.3,1.3,0,0,1-.437,1A1.448,1.448,0,0,1,81,23a1.387,1.387,0,0,1-1.023-.4,1.358,1.358,0,0,1-.4-1V8.3a1.339,1.339,0,0,1,.414-1,1.455,1.455,0,0,1,1.058-.4,1.369,1.369,0,0,1,.989.4,1.339,1.339,0,0,1,.414,1Zm8.625,1.633a9.614,9.614,0,0,1-2.944-.414,6.815,6.815,0,0,1-2.415-1.4,1.615,1.615,0,0,1-.621-1.219,1.3,1.3,0,0,1,.391-.931,1.267,1.267,0,0,1,.943-.4,1.218,1.218,0,0,1,.782.276,6.771,6.771,0,0,0,1.794,1.1,5.627,5.627,0,0,0,2.07.345A4.142,4.142,0,0,0,93.3,20.01a1.666,1.666,0,0,0,.932-1.426,1.829,1.829,0,0,0-.92-1.622,7.8,7.8,0,0,0-2.921-.885q-5.037-.736-5.037-4.692a4.239,4.239,0,0,1,.759-2.519,4.792,4.792,0,0,1,2.07-1.633A7.324,7.324,0,0,1,91.1,6.67a8.358,8.358,0,0,1,2.725.437,6.609,6.609,0,0,1,2.128,1.15,1.535,1.535,0,0,1,.667,1.219,1.3,1.3,0,0,1-.391.931,1.242,1.242,0,0,1-.92.4,1.009,1.009,0,0,1-.621-.207,6.075,6.075,0,0,0-1.668-.885,5.527,5.527,0,0,0-1.92-.4,3.957,3.957,0,0,0-2.243.541,1.717,1.717,0,0,0,.023,2.909,7.745,7.745,0,0,0,2.564.828,13.3,13.3,0,0,1,3.163.885A4.036,4.036,0,0,1,96.39,15.95a4.522,4.522,0,0,1,.6,2.473,4.129,4.129,0,0,1-.817,2.542A5.249,5.249,0,0,1,94,22.643,7.283,7.283,0,0,1,91.077,23.23Zm33.1-16.4a1.5,1.5,0,0,1,1.023.425,1.38,1.38,0,0,1,.471,1.07,1.763,1.763,0,0,1-.069.46l-4.531,13.34a1.213,1.213,0,0,1-.483.621,1.494,1.494,0,0,1-.759.253,1.451,1.451,0,0,1-.782-.23,1.539,1.539,0,0,1-.575-.667L115.2,14.674,111.915,22.1a1.539,1.539,0,0,1-.575.667,1.451,1.451,0,0,1-.782.23,1.494,1.494,0,0,1-.759-.253,1.213,1.213,0,0,1-.483-.621l-4.531-13.34a1.763,1.763,0,0,1-.069-.46,1.38,1.38,0,0,1,.472-1.07,1.526,1.526,0,0,1,1.047-.425,1.476,1.476,0,0,1,.828.241,1.229,1.229,0,0,1,.506.656L111,18.124l2.99-7.176a1.547,1.547,0,0,1,.529-.655,1.214,1.214,0,0,1,.782-.219,1.169,1.169,0,0,1,.771.219,1.582,1.582,0,0,1,.518.655l2.829,7.107,3.4-10.327a1.213,1.213,0,0,1,.517-.656A1.532,1.532,0,0,1,124.174,6.831Zm15.249.069a1.4,1.4,0,0,1,1.035.391,1.369,1.369,0,0,1,.391,1.012V21.6a1.339,1.339,0,0,1-.414,1,1.455,1.455,0,0,1-1.058.4,1.369,1.369,0,0,1-.989-.4,1.339,1.339,0,0,1-.414-1V16.238h-7.337V21.6a1.3,1.3,0,0,1-.437,1,1.448,1.448,0,0,1-1.012.4,1.387,1.387,0,0,1-1.023-.4,1.358,1.358,0,0,1-.4-1V8.3a1.339,1.339,0,0,1,.414-1,1.455,1.455,0,0,1,1.058-.4,1.369,1.369,0,0,1,.989.4,1.339,1.339,0,0,1,.414,1v5.29h7.337V8.3a1.3,1.3,0,0,1,.437-1A1.448,1.448,0,0,1,139.423,6.9Zm13.984,13.455a1.358,1.358,0,0,1,1,.4,1.279,1.279,0,0,1,.4.931,1.221,1.221,0,0,1-.4.943,1.427,1.427,0,0,1-1,.368H145.7a1.375,1.375,0,0,1-1.4-1.4V8.3a1.375,1.375,0,0,1,1.4-1.4h7.705a1.4,1.4,0,0,1,1,.379,1.283,1.283,0,0,1,.4.977,1.2,1.2,0,0,1-.391.931,1.444,1.444,0,0,1-1.012.357h-6.233v3.91h5.2a1.4,1.4,0,0,1,1,.379,1.283,1.283,0,0,1,.4.978,1.2,1.2,0,0,1-.391.931,1.444,1.444,0,0,1-1.012.357h-5.2v4.255Zm16.675.391a1.355,1.355,0,0,1,.471.483,1.226,1.226,0,0,1,.173.621,1.188,1.188,0,0,1-.276.759,1.3,1.3,0,0,1-1.058.414,2.065,2.065,0,0,1-1.012-.253q-1.656-.943-1.656-3.841a1.669,1.669,0,0,0-.54-1.311,2.255,2.255,0,0,0-1.553-.483h-4.3V21.6A1.505,1.505,0,0,1,160,22.609a1.106,1.106,0,0,1-.885.391,1.784,1.784,0,0,1-1.161-.4,1.241,1.241,0,0,1-.494-1V8.3a1.375,1.375,0,0,1,1.4-1.4h6.624a4.263,4.263,0,0,1,2.254.644,4.753,4.753,0,0,1,1.691,1.771,5.079,5.079,0,0,1,.632,2.53,4.485,4.485,0,0,1-.621,2.243,4.948,4.948,0,0,1-1.61,1.736,3.524,3.524,0,0,1,1.587,2.714,3.866,3.866,0,0,1,.069.713,7.324,7.324,0,0,0,.184,1.024A.758.758,0,0,0,170.082,20.746Zm-4.715-5.98a1.145,1.145,0,0,0,.805-.391,2.968,2.968,0,0,0,.644-1.046,3.9,3.9,0,0,0,.253-1.415,2.759,2.759,0,0,0-.253-1.184,2.427,2.427,0,0,0-.644-.863,1.257,1.257,0,0,0-.805-.322H160.33v5.221Zm17,5.589a1.358,1.358,0,0,1,1,.4,1.279,1.279,0,0,1,.4.931,1.221,1.221,0,0,1-.4.943,1.427,1.427,0,0,1-1,.368h-7.705a1.375,1.375,0,0,1-1.4-1.4V8.3a1.375,1.375,0,0,1,1.4-1.4h7.705a1.4,1.4,0,0,1,1,.379,1.283,1.283,0,0,1,.4.977,1.2,1.2,0,0,1-.391.931,1.444,1.444,0,0,1-1.012.357h-6.233v3.91h5.2a1.4,1.4,0,0,1,1,.379,1.283,1.283,0,0,1,.4.978,1.2,1.2,0,0,1-.391.931,1.444,1.444,0,0,1-1.012.357h-5.2v4.255Zm22.126-12.1a1.536,1.536,0,0,1-.253.851l-4.807,6.877V21.6a1.379,1.379,0,0,1-.391,1,1.267,1.267,0,0,1-.943.4,1.331,1.331,0,0,1-.977-.4,1.358,1.358,0,0,1-.4-1V15.663l-4.784-6.348a1.809,1.809,0,0,1-.414-1.081,1.263,1.263,0,0,1,.471-1,1.519,1.519,0,0,1,1-.4,1.393,1.393,0,0,1,1.127.644l4.048,5.589,3.8-5.543a1.39,1.39,0,0,1,1.15-.69,1.324,1.324,0,0,1,.966.414A1.377,1.377,0,0,1,204.49,8.257Zm16.284,6.693a8.73,8.73,0,0,1-1.012,4.175,7.75,7.75,0,0,1-2.794,3,7.847,7.847,0,0,1-8.027,0,7.666,7.666,0,0,1-2.783-3,8.811,8.811,0,0,1-1-4.175,8.811,8.811,0,0,1,1-4.175,7.666,7.666,0,0,1,2.783-3,7.847,7.847,0,0,1,8.027,0,7.75,7.75,0,0,1,2.794,3A8.73,8.73,0,0,1,220.774,14.95Zm-2.99,0a6.208,6.208,0,0,0-.621-2.795,5.012,5.012,0,0,0-1.725-1.99,4.609,4.609,0,0,0-4.98-.012,4.859,4.859,0,0,0-1.7,1.99,6.38,6.38,0,0,0-.609,2.806,6.38,6.38,0,0,0,.609,2.806,4.859,4.859,0,0,0,1.7,1.99,4.609,4.609,0,0,0,4.98-.012,5.012,5.012,0,0,0,1.725-1.99A6.208,6.208,0,0,0,217.784,14.95ZM234.85,6.877a1.265,1.265,0,0,1,.966.391,1.417,1.417,0,0,1,.368,1.012v8.326a6.932,6.932,0,0,1-.805,3.381,5.807,5.807,0,0,1-2.254,2.3,7.061,7.061,0,0,1-6.635,0,5.786,5.786,0,0,1-2.266-2.3,6.932,6.932,0,0,1-.8-3.381V8.28a1.339,1.339,0,0,1,.414-1,1.455,1.455,0,0,1,1.058-.4,1.394,1.394,0,0,1,1.38,1.4v8.326a3.955,3.955,0,0,0,.483,1.967,3.37,3.37,0,0,0,1.3,1.323,3.526,3.526,0,0,0,1.76.46,3.875,3.875,0,0,0,1.852-.46,3.517,3.517,0,0,0,1.38-1.323,3.747,3.747,0,0,0,.518-1.967V8.28a1.473,1.473,0,0,1,.345-1.012A1.193,1.193,0,0,1,234.85,6.877Zm17.411,13.869a1.355,1.355,0,0,1,.471.483,1.226,1.226,0,0,1,.173.621,1.188,1.188,0,0,1-.276.759,1.3,1.3,0,0,1-1.058.414,2.065,2.065,0,0,1-1.012-.253q-1.656-.943-1.656-3.841a1.669,1.669,0,0,0-.54-1.311,2.255,2.255,0,0,0-1.553-.483h-4.3V21.6a1.505,1.505,0,0,1-.334,1.012,1.106,1.106,0,0,1-.885.391,1.784,1.784,0,0,1-1.161-.4,1.241,1.241,0,0,1-.494-1V8.3a1.375,1.375,0,0,1,1.4-1.4h6.624a4.263,4.263,0,0,1,2.254.644,4.753,4.753,0,0,1,1.691,1.771,5.079,5.079,0,0,1,.632,2.53,4.485,4.485,0,0,1-.621,2.243,4.948,4.948,0,0,1-1.61,1.736,3.524,3.524,0,0,1,1.587,2.714,3.866,3.866,0,0,1,.069.713,7.324,7.324,0,0,0,.184,1.024A.758.758,0,0,0,252.261,20.746Zm-4.715-5.98a1.145,1.145,0,0,0,.8-.391A2.968,2.968,0,0,0,249,13.328a3.9,3.9,0,0,0,.253-1.415A2.759,2.759,0,0,0,249,10.729a2.427,2.427,0,0,0-.644-.863,1.257,1.257,0,0,0-.8-.322h-5.037v5.221ZM272.455,6.9a1.417,1.417,0,0,1,1.012.368,1.265,1.265,0,0,1,.391.966,1.229,1.229,0,0,1-.391.954,1.444,1.444,0,0,1-1.012.357h-3.611V21.6a1.3,1.3,0,0,1-.437,1,1.536,1.536,0,0,1-1.081.4,1.455,1.455,0,0,1-1.058-.4,1.339,1.339,0,0,1-.414-1V9.545h-3.611a1.417,1.417,0,0,1-1.012-.368,1.265,1.265,0,0,1-.391-.966,1.22,1.22,0,0,1,.4-.943,1.427,1.427,0,0,1,1-.368Zm12.926,13.455a1.358,1.358,0,0,1,1,.4,1.279,1.279,0,0,1,.4.931,1.22,1.22,0,0,1-.4.943,1.427,1.427,0,0,1-1,.368h-7.705a1.375,1.375,0,0,1-1.4-1.4V8.3a1.375,1.375,0,0,1,1.4-1.4h7.705a1.4,1.4,0,0,1,1,.379,1.283,1.283,0,0,1,.4.977,1.2,1.2,0,0,1-.391.931,1.444,1.444,0,0,1-1.012.357h-6.233v3.91h5.2a1.4,1.4,0,0,1,1,.379,1.283,1.283,0,0,1,.4.978,1.2,1.2,0,0,1-.391.931,1.444,1.444,0,0,1-1.012.357h-5.2v4.255Zm16.054.529a1.38,1.38,0,0,1,.276.851,1.27,1.27,0,0,1-.437.989,1.349,1.349,0,0,1-2.07-.207l-4.094-5.451-3.979,5.405a1.37,1.37,0,0,1-1.15.644,1.194,1.194,0,0,1-.874-.368,1.168,1.168,0,0,1-.368-.851,1.492,1.492,0,0,1,.345-.943l4.439-6-4.439-5.888a1.279,1.279,0,0,1-.3-.828,1.315,1.315,0,0,1,.437-.989,1.349,1.349,0,0,1,2.093.184l4.048,5.382,3.956-5.267a1.7,1.7,0,0,1,.529-.494,1.188,1.188,0,0,1,.6-.173,1.217,1.217,0,0,1,.9.4,1.247,1.247,0,0,1,.391.885,1.341,1.341,0,0,1-.3.828L296.95,14.9ZM315.074,6.9a1.417,1.417,0,0,1,1.012.368,1.265,1.265,0,0,1,.391.966,1.229,1.229,0,0,1-.391.954,1.444,1.444,0,0,1-1.012.357h-3.611V21.6a1.3,1.3,0,0,1-.437,1,1.536,1.536,0,0,1-1.081.4,1.455,1.455,0,0,1-1.058-.4,1.339,1.339,0,0,1-.414-1V9.545h-3.611a1.417,1.417,0,0,1-1.012-.368,1.265,1.265,0,0,1-.391-.966,1.22,1.22,0,0,1,.4-.943,1.427,1.427,0,0,1,1-.368Zm15.433,16.33a9.614,9.614,0,0,1-2.944-.414,6.815,6.815,0,0,1-2.415-1.4,1.615,1.615,0,0,1-.621-1.219,1.3,1.3,0,0,1,.391-.931,1.267,1.267,0,0,1,.943-.4,1.218,1.218,0,0,1,.782.276,6.77,6.77,0,0,0,1.794,1.1,5.627,5.627,0,0,0,2.07.345,4.142,4.142,0,0,0,2.22-.575,1.666,1.666,0,0,0,.931-1.426,1.829,1.829,0,0,0-.92-1.622,7.8,7.8,0,0,0-2.921-.885q-5.037-.736-5.037-4.692a4.239,4.239,0,0,1,.759-2.519,4.793,4.793,0,0,1,2.07-1.633,7.324,7.324,0,0,1,2.921-.564,8.358,8.358,0,0,1,2.725.437,6.609,6.609,0,0,1,2.128,1.15,1.535,1.535,0,0,1,.667,1.219,1.3,1.3,0,0,1-.391.931,1.242,1.242,0,0,1-.92.4,1.009,1.009,0,0,1-.621-.207,6.075,6.075,0,0,0-1.667-.885,5.527,5.527,0,0,0-1.921-.4,3.957,3.957,0,0,0-2.242.541,1.717,1.717,0,0,0,.023,2.909,7.745,7.745,0,0,0,2.565.828,13.3,13.3,0,0,1,3.163.885,4.036,4.036,0,0,1,1.783,1.472,4.522,4.522,0,0,1,.6,2.473,4.129,4.129,0,0,1-.816,2.542,5.25,5.25,0,0,1-2.173,1.679A7.283,7.283,0,0,1,330.507,23.23ZM350.724,6.9a1.4,1.4,0,0,1,1.035.391A1.369,1.369,0,0,1,352.15,8.3V21.6a1.339,1.339,0,0,1-.414,1,1.455,1.455,0,0,1-1.058.4,1.369,1.369,0,0,1-.989-.4,1.339,1.339,0,0,1-.414-1V16.238h-7.337V21.6a1.3,1.3,0,0,1-.437,1,1.448,1.448,0,0,1-1.012.4,1.387,1.387,0,0,1-1.023-.4,1.358,1.358,0,0,1-.4-1V8.3a1.339,1.339,0,0,1,.414-1,1.455,1.455,0,0,1,1.058-.4,1.369,1.369,0,0,1,.989.4,1.339,1.339,0,0,1,.414,1v5.29h7.337V8.3a1.3,1.3,0,0,1,.437-1A1.448,1.448,0,0,1,350.724,6.9Zm19.688,8.05a8.731,8.731,0,0,1-1.012,4.175,7.75,7.75,0,0,1-2.794,3,7.847,7.847,0,0,1-8.027,0,7.666,7.666,0,0,1-2.783-3,8.811,8.811,0,0,1-1-4.175,8.811,8.811,0,0,1,1-4.175,7.666,7.666,0,0,1,2.783-3,7.847,7.847,0,0,1,8.027,0,7.75,7.75,0,0,1,2.794,3A8.731,8.731,0,0,1,370.412,14.95Zm-2.99,0a6.208,6.208,0,0,0-.621-2.795,5.012,5.012,0,0,0-1.725-1.99,4.609,4.609,0,0,0-4.979-.012,4.859,4.859,0,0,0-1.7,1.99,6.38,6.38,0,0,0-.609,2.806,6.38,6.38,0,0,0,.609,2.806,4.859,4.859,0,0,0,1.7,1.99,4.609,4.609,0,0,0,4.979-.012,5.012,5.012,0,0,0,1.725-1.99A6.208,6.208,0,0,0,367.422,14.95Zm17.066-8.073a1.265,1.265,0,0,1,.966.391,1.417,1.417,0,0,1,.368,1.012v8.326a6.933,6.933,0,0,1-.8,3.381,5.807,5.807,0,0,1-2.254,2.3,7.061,7.061,0,0,1-6.635,0,5.786,5.786,0,0,1-2.266-2.3,6.933,6.933,0,0,1-.8-3.381V8.28a1.339,1.339,0,0,1,.414-1,1.455,1.455,0,0,1,1.058-.4,1.394,1.394,0,0,1,1.38,1.4v8.326a3.955,3.955,0,0,0,.483,1.967,3.37,3.37,0,0,0,1.3,1.323,3.526,3.526,0,0,0,1.759.46,3.875,3.875,0,0,0,1.852-.46,3.517,3.517,0,0,0,1.38-1.323,3.747,3.747,0,0,0,.518-1.967V8.28a1.473,1.473,0,0,1,.345-1.012A1.193,1.193,0,0,1,384.488,6.877ZM398.15,20.309a1.4,1.4,0,0,1,1,.379,1.283,1.283,0,0,1,.4.978,1.256,1.256,0,0,1-.4.955,1.4,1.4,0,0,1-1,.379h-7.475a1.375,1.375,0,0,1-1.4-1.4V8.3a1.339,1.339,0,0,1,.414-1,1.455,1.455,0,0,1,1.058-.4,1.369,1.369,0,0,1,.989.4,1.339,1.339,0,0,1,.414,1V20.309ZM409.1,6.9a6.386,6.386,0,0,1,3.715,1.069,6.8,6.8,0,0,1,2.369,2.9A9.9,9.9,0,0,1,416,14.95a9.9,9.9,0,0,1-.816,4.082,6.8,6.8,0,0,1-2.369,2.9A6.386,6.386,0,0,1,409.1,23h-5.5a1.375,1.375,0,0,1-1.4-1.4V8.3a1.375,1.375,0,0,1,1.4-1.4Zm-.23,13.455a3.5,3.5,0,0,0,3.105-1.529,6.77,6.77,0,0,0,1.035-3.876,6.714,6.714,0,0,0-1.047-3.876,3.506,3.506,0,0,0-3.094-1.53h-3.795v10.81Zm25.875-6.279a4.631,4.631,0,0,1,1.99,1.472,4.033,4.033,0,0,1,.77,2.553q0,2.737-1.564,3.818A6.39,6.39,0,0,1,432.213,23h-5.727a1.375,1.375,0,0,1-1.4-1.4V8.3a1.375,1.375,0,0,1,1.4-1.4h5.8q4.37,0,4.37,4.094a3.385,3.385,0,0,1-.495,1.828A3.423,3.423,0,0,1,434.743,14.076ZM433.662,11.5a1.921,1.921,0,0,0-.471-1.415,1.788,1.788,0,0,0-1.322-.472h-3.8V13.2h3.864a1.761,1.761,0,0,0,1.207-.46A1.578,1.578,0,0,0,433.662,11.5Zm-1.449,8.855a2.366,2.366,0,0,0,1.69-.575,2.2,2.2,0,0,0,.609-1.679,1.885,1.885,0,0,0-.713-1.771,3.43,3.43,0,0,0-1.748-.414h-3.979v4.439Zm17.043,0a1.358,1.358,0,0,1,1,.4,1.279,1.279,0,0,1,.4.931,1.22,1.22,0,0,1-.4.943,1.427,1.427,0,0,1-1,.368h-7.705a1.375,1.375,0,0,1-1.4-1.4V8.3a1.375,1.375,0,0,1,1.4-1.4h7.705a1.4,1.4,0,0,1,1,.379,1.283,1.283,0,0,1,.4.977,1.2,1.2,0,0,1-.391.931,1.444,1.444,0,0,1-1.012.357h-6.233v3.91h5.2a1.4,1.4,0,0,1,1,.379,1.283,1.283,0,0,1,.4.978,1.2,1.2,0,0,1-.391.931,1.444,1.444,0,0,1-1.012.357h-5.2v4.255Z" transform="translate(113 6)" fill="#888"/>
  </g>
</svg>
