<svg xmlns="http://www.w3.org/2000/svg" xmlns:xlink="http://www.w3.org/1999/xlink" width="714" height="43" viewBox="0 0 714 43">
  <defs>
    <clipPath id="clip-widthheight">
      <rect width="714" height="43"/>
    </clipPath>
  </defs>
  <g id="widthheight" clip-path="url(#clip-widthheight)">
    <path id="Path_20" data-name="Path 20" d="M21.792,14.88a1.712,1.712,0,0,1,1.3.56,1.993,1.993,0,0,1,.528,1.424,2.8,2.8,0,0,1-.128.736l-4.9,13.184a1.734,1.734,0,0,1-.688.912,1.874,1.874,0,0,1-1.072.336L16.576,32a1.875,1.875,0,0,1-1.632-1.216l-2.72-7.872L9.632,30.784A1.875,1.875,0,0,1,8,32l-.256.032A1.874,1.874,0,0,1,6.672,31.7a1.734,1.734,0,0,1-.688-.912L1.088,17.6a2.137,2.137,0,0,1-.128-.736,2.024,2.024,0,0,1,.528-1.392A1.775,1.775,0,0,1,2.88,14.88a1.969,1.969,0,0,1,1.1.3,1.632,1.632,0,0,1,.656.912L8.1,25.472l2.528-6.848a1.789,1.789,0,0,1,1.76-1.184,1.653,1.653,0,0,1,1.04.288,2.186,2.186,0,0,1,.624.9l2.464,6.688L19.936,16.1a1.607,1.607,0,0,1,.672-.912A2.171,2.171,0,0,1,21.792,14.88Zm8.48,15.168a1.919,1.919,0,0,1-.544,1.392,1.971,1.971,0,0,1-2.752,0,1.919,1.919,0,0,1-.544-1.392V16.832a1.919,1.919,0,0,1,.544-1.392,1.971,1.971,0,0,1,2.752,0,1.919,1.919,0,0,1,.544,1.392ZM28.32,12.8a2.542,2.542,0,0,1-1.536-.352,1.5,1.5,0,0,1-.448-1.248v-.608a1.451,1.451,0,0,1,.48-1.248,2.632,2.632,0,0,1,1.536-.352,2.612,2.612,0,0,1,1.568.352,1.5,1.5,0,0,1,.448,1.248V11.2a1.47,1.47,0,0,1-.464,1.264A2.794,2.794,0,0,1,28.32,12.8ZM48.064,8.32a1.865,1.865,0,0,1,1.376.544,1.905,1.905,0,0,1,.544,1.408V30.048a1.919,1.919,0,0,1-.544,1.392,1.837,1.837,0,0,1-1.376.56,1.812,1.812,0,0,1-1.36-.544,2.013,2.013,0,0,1-.56-1.376,6.939,6.939,0,0,1-5.024,2.24,7.316,7.316,0,0,1-4-1.136,7.965,7.965,0,0,1-2.832-3.152,9.836,9.836,0,0,1-1.04-4.576,10.062,10.062,0,0,1,1.024-4.592,7.868,7.868,0,0,1,2.8-3.168,7.127,7.127,0,0,1,3.92-1.136,7.412,7.412,0,0,1,2.88.56,7.563,7.563,0,0,1,2.272,1.424V10.272a1.919,1.919,0,0,1,.544-1.392A1.837,1.837,0,0,1,48.064,8.32ZM41.6,28.8a4.273,4.273,0,0,0,3.392-1.52A5.644,5.644,0,0,0,46.3,23.456a5.705,5.705,0,0,0-1.312-3.84,4.478,4.478,0,0,0-6.752,0,5.705,5.705,0,0,0-1.312,3.84,5.688,5.688,0,0,0,1.3,3.824A4.226,4.226,0,0,0,41.6,28.8Zm20.8-.416a1.064,1.064,0,0,1,.816.432,1.692,1.692,0,0,1,.368,1.136,1.71,1.71,0,0,1-.944,1.456A3.922,3.922,0,0,1,60.512,32a6.2,6.2,0,0,1-3.344-.848q-1.36-.848-1.36-3.6V18.72H54.336a1.75,1.75,0,0,1-1.792-1.792,1.646,1.646,0,0,1,.512-1.232,1.766,1.766,0,0,1,1.28-.5h1.472V13.152A1.913,1.913,0,0,1,57.76,11.2a1.8,1.8,0,0,1,1.344.56,1.919,1.919,0,0,1,.544,1.392V15.2H61.92a1.75,1.75,0,0,1,1.792,1.792,1.646,1.646,0,0,1-.512,1.232,1.766,1.766,0,0,1-1.28.5H59.648v8.672a1.225,1.225,0,0,0,.352.976,1.42,1.42,0,0,0,.96.3,2.746,2.746,0,0,0,.7-.128A1.912,1.912,0,0,1,62.4,28.384ZM76.224,14.56q3.168,0,4.384,1.936a10.048,10.048,0,0,1,1.216,5.36v8.192a1.919,1.919,0,0,1-.544,1.392,1.971,1.971,0,0,1-2.752,0,1.919,1.919,0,0,1-.544-1.392V21.856a4.852,4.852,0,0,0-.688-2.768A2.714,2.714,0,0,0,74.88,18.08a3.657,3.657,0,0,0-2.8,1.072,3.792,3.792,0,0,0-1.008,2.7v8.192a1.919,1.919,0,0,1-.544,1.392,1.971,1.971,0,0,1-2.752,0,1.919,1.919,0,0,1-.544-1.392V10.272a1.919,1.919,0,0,1,.544-1.392,1.971,1.971,0,0,1,2.752,0,1.919,1.919,0,0,1,.544,1.392v7.072a7.815,7.815,0,0,1,2.192-1.968A5.542,5.542,0,0,1,76.224,14.56Zm11.84,4.928a1.733,1.733,0,0,1-1.92-1.92v-.544a1.733,1.733,0,0,1,1.92-1.92h.416a1.733,1.733,0,0,1,1.92,1.92v.544a1.733,1.733,0,0,1-1.92,1.92Zm0,12.512a1.733,1.733,0,0,1-1.92-1.92v-.544a1.733,1.733,0,0,1,1.92-1.92h.416a1.733,1.733,0,0,1,1.92,1.92v.544A1.733,1.733,0,0,1,88.48,32Z" transform="translate(157)" fill="#6e6e6e"/>
    <path id="Path_21" data-name="Path 21" d="M4.992,19.488a1.927,1.927,0,0,1-1.424-.5,1.927,1.927,0,0,1-.5-1.424v-.544a1.927,1.927,0,0,1,.5-1.424,1.927,1.927,0,0,1,1.424-.5h.416a1.927,1.927,0,0,1,1.424.5,1.927,1.927,0,0,1,.5,1.424v.544a1.927,1.927,0,0,1-.5,1.424,1.927,1.927,0,0,1-1.424.5ZM7.968,31.744A4.489,4.489,0,0,1,7.424,33.6a6.82,6.82,0,0,1-1.408,1.952,2.582,2.582,0,0,1-1.792.832,1.859,1.859,0,0,1-1.12-.3,1.127,1.127,0,0,1-.416-.976.881.881,0,0,1,.256-.72,1.688,1.688,0,0,1,.56-.3,3.289,3.289,0,0,0,.432-.16,1.438,1.438,0,0,0,.9-1.28.792.792,0,0,0-.336-.624,1.355,1.355,0,0,0-.88-.272,1.641,1.641,0,0,0-.9.224,1.473,1.473,0,0,1-.592-.416,1.2,1.2,0,0,1-.208-.768,1.814,1.814,0,0,1,.48-1.2,3.551,3.551,0,0,1,1.184-.9,3.182,3.182,0,0,1,1.376-.336,2.834,2.834,0,0,1,2.208.88A3.606,3.606,0,0,1,7.968,31.744Z" transform="translate(308 -5)" fill="#6e6e6e"/>
    <path id="Path_22" data-name="Path 22" d="M11.072,14.56q3.168,0,4.384,1.936a10.048,10.048,0,0,1,1.216,5.36v8.192a1.919,1.919,0,0,1-.544,1.392,1.971,1.971,0,0,1-2.752,0,1.919,1.919,0,0,1-.544-1.392V21.856a4.852,4.852,0,0,0-.688-2.768A2.714,2.714,0,0,0,9.728,18.08a3.657,3.657,0,0,0-2.8,1.072,3.792,3.792,0,0,0-1.008,2.7v8.192a1.919,1.919,0,0,1-.544,1.392A1.837,1.837,0,0,1,4,32a1.837,1.837,0,0,1-1.376-.56,1.919,1.919,0,0,1-.544-1.392V10.272A1.919,1.919,0,0,1,2.624,8.88,1.837,1.837,0,0,1,4,8.32a1.837,1.837,0,0,1,1.376.56,1.919,1.919,0,0,1,.544,1.392v7.072a7.815,7.815,0,0,1,2.192-1.968A5.542,5.542,0,0,1,11.072,14.56Zm25.12,8.48a1.643,1.643,0,0,1-.608,1.248,2.036,2.036,0,0,1-1.344.48H23.68a4.825,4.825,0,0,0,1.76,2.96,4.92,4.92,0,0,0,3.1,1.072,6.879,6.879,0,0,0,2.048-.24,5.334,5.334,0,0,0,1.168-.512q.432-.272.592-.368a2.441,2.441,0,0,1,1.088-.288,1.571,1.571,0,0,1,1.152.48,1.535,1.535,0,0,1,.48,1.12,2,2,0,0,1-.9,1.568,7.646,7.646,0,0,1-2.4,1.248,9.921,9.921,0,0,1-7.728-.608,7.818,7.818,0,0,1-3.088-3.088,9,9,0,0,1-1.088-4.432,9.811,9.811,0,0,1,1.152-4.832,8.179,8.179,0,0,1,3.04-3.184,7.858,7.858,0,0,1,4.032-1.1,7.475,7.475,0,0,1,3.984,1.152,8.611,8.611,0,0,1,2.992,3.1A8.344,8.344,0,0,1,36.192,23.04Zm-8.1-4.96q-3.712,0-4.384,3.488H32.1v-.224a3.308,3.308,0,0,0-1.312-2.3A4.153,4.153,0,0,0,28.1,18.08ZM43.008,30.048a1.919,1.919,0,0,1-.544,1.392,1.971,1.971,0,0,1-2.752,0,1.919,1.919,0,0,1-.544-1.392V16.832a1.919,1.919,0,0,1,.544-1.392,1.971,1.971,0,0,1,2.752,0,1.919,1.919,0,0,1,.544,1.392ZM41.056,12.8a2.542,2.542,0,0,1-1.536-.352,1.5,1.5,0,0,1-.448-1.248v-.608a1.451,1.451,0,0,1,.48-1.248,2.632,2.632,0,0,1,1.536-.352,2.612,2.612,0,0,1,1.568.352,1.5,1.5,0,0,1,.448,1.248V11.2a1.47,1.47,0,0,1-.464,1.264A2.794,2.794,0,0,1,41.056,12.8ZM61.12,14.56A1.865,1.865,0,0,1,62.5,15.1a1.905,1.905,0,0,1,.544,1.408v14.24q0,3.9-2.416,5.776A9.71,9.71,0,0,1,54.5,38.4a15.028,15.028,0,0,1-2.64-.32,11.634,11.634,0,0,1-2.384-.64Q47.9,36.768,47.9,35.584a1.644,1.644,0,0,1,.1-.512A1.983,1.983,0,0,1,48.656,34a1.589,1.589,0,0,1,1.008-.368,1.91,1.91,0,0,1,.608.1q.128.032,1.584.592a7.436,7.436,0,0,0,2.64.56,5.554,5.554,0,0,0,3.536-.944A3.24,3.24,0,0,0,59.2,31.264V29.728a6.377,6.377,0,0,1-2.128,1.792,6.14,6.14,0,0,1-3.056.8,7.613,7.613,0,0,1-4.08-1.136,7.957,7.957,0,0,1-2.9-3.152,9.713,9.713,0,0,1-1.056-4.576,9.933,9.933,0,0,1,1.04-4.592A7.9,7.9,0,0,1,49.872,15.7a7.4,7.4,0,0,1,4.016-1.136,6.967,6.967,0,0,1,3.04.672A7.15,7.15,0,0,1,59.2,16.864v-.352a1.919,1.919,0,0,1,.544-1.392A1.837,1.837,0,0,1,61.12,14.56ZM54.5,28.8A4.487,4.487,0,0,0,58,27.28a5.521,5.521,0,0,0,1.36-3.824A5.581,5.581,0,0,0,58,19.616a4.466,4.466,0,0,0-3.5-1.536,4.418,4.418,0,0,0-3.488,1.536,5.621,5.621,0,0,0-1.344,3.84,5.561,5.561,0,0,0,1.344,3.824A4.438,4.438,0,0,0,54.5,28.8Zm21.7-14.24q3.168,0,4.384,1.936a10.048,10.048,0,0,1,1.216,5.36v8.192a1.919,1.919,0,0,1-.544,1.392,1.971,1.971,0,0,1-2.752,0,1.919,1.919,0,0,1-.544-1.392V21.856a4.852,4.852,0,0,0-.688-2.768,2.714,2.714,0,0,0-2.416-1.008,3.657,3.657,0,0,0-2.8,1.072,3.792,3.792,0,0,0-1.008,2.7v8.192A1.919,1.919,0,0,1,70.5,31.44a1.971,1.971,0,0,1-2.752,0,1.919,1.919,0,0,1-.544-1.392V10.272a1.919,1.919,0,0,1,.544-1.392,1.971,1.971,0,0,1,2.752,0,1.919,1.919,0,0,1,.544,1.392v7.072a7.815,7.815,0,0,1,2.192-1.968A5.542,5.542,0,0,1,76.192,14.56ZM94.208,28.384a1.064,1.064,0,0,1,.816.432,1.692,1.692,0,0,1,.368,1.136,1.71,1.71,0,0,1-.944,1.456A3.922,3.922,0,0,1,92.32,32a6.2,6.2,0,0,1-3.344-.848q-1.36-.848-1.36-3.6V18.72H86.144a1.75,1.75,0,0,1-1.792-1.792,1.646,1.646,0,0,1,.512-1.232,1.766,1.766,0,0,1,1.28-.5h1.472V13.152A1.913,1.913,0,0,1,89.568,11.2a1.8,1.8,0,0,1,1.344.56,1.919,1.919,0,0,1,.544,1.392V15.2h2.272a1.75,1.75,0,0,1,1.792,1.792,1.646,1.646,0,0,1-.512,1.232,1.766,1.766,0,0,1-1.28.5H91.456v8.672a1.225,1.225,0,0,0,.352.976,1.42,1.42,0,0,0,.96.3,2.746,2.746,0,0,0,.7-.128A1.912,1.912,0,0,1,94.208,28.384Zm6.912-8.9a1.733,1.733,0,0,1-1.92-1.92v-.544a1.733,1.733,0,0,1,1.92-1.92h.416a1.733,1.733,0,0,1,1.92,1.92v.544a1.733,1.733,0,0,1-1.92,1.92Zm0,12.512a1.733,1.733,0,0,1-1.92-1.92v-.544a1.733,1.733,0,0,1,1.92-1.92h.416a1.733,1.733,0,0,1,1.92,1.92v.544a1.733,1.733,0,0,1-1.92,1.92Z" transform="translate(338)" fill="#6e6e6e"/>
    <path id="Path_23" data-name="Path 23" d="M14.3,14.586l-.78,4.524h1.222a1.377,1.377,0,0,1,1.4,1.4,1.2,1.2,0,0,1-.4.936,1.438,1.438,0,0,1-1,.364h-1.69l-.52,3.068a1.317,1.317,0,0,1-.429.806,1.263,1.263,0,0,1-.871.312,1.328,1.328,0,0,1-1-.39A1.4,1.4,0,0,1,9.854,24.6a1.549,1.549,0,0,1,.026-.338l.416-2.444H6.032l-.52,3.068a1.258,1.258,0,0,1-.442.819,1.347,1.347,0,0,1-.884.3,1.275,1.275,0,0,1-.975-.4,1.444,1.444,0,0,1-.377-1.027,1.386,1.386,0,0,1,.026-.312l.416-2.444H2.34a1.377,1.377,0,0,1-1.4-1.4,1.2,1.2,0,0,1,.4-.936,1.438,1.438,0,0,1,1-.364h1.4l.78-4.524H3.3a1.377,1.377,0,0,1-1.4-1.4,1.2,1.2,0,0,1,.4-.936,1.438,1.438,0,0,1,1-.364H4.966l.52-2.964a1.317,1.317,0,0,1,.429-.806A1.263,1.263,0,0,1,6.786,7.8a1.328,1.328,0,0,1,1,.39A1.4,1.4,0,0,1,8.164,9.2a1.549,1.549,0,0,1-.026.338l-.39,2.34h4.238l.52-2.964a1.258,1.258,0,0,1,.442-.819,1.347,1.347,0,0,1,.884-.3,1.275,1.275,0,0,1,.975.4,1.444,1.444,0,0,1,.377,1.027,1.386,1.386,0,0,1-.026.312l-.39,2.34h.91a1.377,1.377,0,0,1,1.4,1.4,1.2,1.2,0,0,1-.4.936,1.438,1.438,0,0,1-1,.364ZM10.764,19.11l.78-4.524H7.28L6.5,19.11ZM26.91,11.83a5.944,5.944,0,0,1,3.25.923,6.471,6.471,0,0,1,2.3,2.561,7.992,7.992,0,0,1,.845,3.718,8.175,8.175,0,0,1-.832,3.731A6.393,6.393,0,0,1,30.2,25.337a5.791,5.791,0,0,1-3.185.923,5.575,5.575,0,0,1-2.353-.507,6.238,6.238,0,0,1-1.833-1.235v5.1a1.559,1.559,0,0,1-.442,1.131,1.493,1.493,0,0,1-1.118.455,1.515,1.515,0,0,1-1.118-.442,1.548,1.548,0,0,1-.442-1.144V13.676a1.559,1.559,0,0,1,.442-1.131,1.6,1.6,0,0,1,2.236,0,1.559,1.559,0,0,1,.442,1.131v.1a5.383,5.383,0,0,1,1.742-1.365A4.981,4.981,0,0,1,26.91,11.83ZM26.52,23.4a3.429,3.429,0,0,0,2.73-1.248,4.636,4.636,0,0,0,1.066-3.12,4.621,4.621,0,0,0-1.053-3.107A3.434,3.434,0,0,0,26.52,14.69a3.472,3.472,0,0,0-2.756,1.235A4.586,4.586,0,0,0,22.7,19.032a4.636,4.636,0,0,0,1.066,3.12A3.456,3.456,0,0,0,26.52,23.4Zm19.63.13a1.446,1.446,0,0,1,.338.936,1.487,1.487,0,0,1-.494,1.118,1.525,1.525,0,0,1-2.366-.208L40.508,21.5l-3.042,3.874a1.642,1.642,0,0,1-.559.481,1.473,1.473,0,0,1-.689.169,1.594,1.594,0,0,1-1.04-.416,1.232,1.232,0,0,1-.494-.962,1.522,1.522,0,0,1,.39-.988l3.614-4.42-3.744-4.654a1.446,1.446,0,0,1-.338-.936,1.464,1.464,0,0,1,.481-1.105,1.572,1.572,0,0,1,2.379.195l3.2,3.978,2.964-3.926a1.477,1.477,0,0,1,1.248-.7,1.432,1.432,0,0,1,1.053.429,1.344,1.344,0,0,1,.429.975,1.55,1.55,0,0,1-.364,1.014l-3.588,4.368Z" transform="translate(254 5)" fill="#aeaeae"/>
    <path id="Path_24" data-name="Path 24" d="M14.3,14.586l-.78,4.524h1.222a1.377,1.377,0,0,1,1.4,1.4,1.2,1.2,0,0,1-.4.936,1.438,1.438,0,0,1-1,.364h-1.69l-.52,3.068a1.317,1.317,0,0,1-.429.806,1.263,1.263,0,0,1-.871.312,1.328,1.328,0,0,1-1-.39A1.4,1.4,0,0,1,9.854,24.6a1.549,1.549,0,0,1,.026-.338l.416-2.444H6.032l-.52,3.068a1.258,1.258,0,0,1-.442.819,1.347,1.347,0,0,1-.884.3,1.275,1.275,0,0,1-.975-.4,1.444,1.444,0,0,1-.377-1.027,1.386,1.386,0,0,1,.026-.312l.416-2.444H2.34a1.377,1.377,0,0,1-1.4-1.4,1.2,1.2,0,0,1,.4-.936,1.438,1.438,0,0,1,1-.364h1.4l.78-4.524H3.3a1.377,1.377,0,0,1-1.4-1.4,1.2,1.2,0,0,1,.4-.936,1.438,1.438,0,0,1,1-.364H4.966l.52-2.964a1.317,1.317,0,0,1,.429-.806A1.263,1.263,0,0,1,6.786,7.8a1.328,1.328,0,0,1,1,.39A1.4,1.4,0,0,1,8.164,9.2a1.549,1.549,0,0,1-.026.338l-.39,2.34h4.238l.52-2.964a1.258,1.258,0,0,1,.442-.819,1.347,1.347,0,0,1,.884-.3,1.275,1.275,0,0,1,.975.4,1.444,1.444,0,0,1,.377,1.027,1.386,1.386,0,0,1-.026.312l-.39,2.34h.91a1.377,1.377,0,0,1,1.4,1.4,1.2,1.2,0,0,1-.4.936,1.438,1.438,0,0,1-1,.364ZM10.764,19.11l.78-4.524H7.28L6.5,19.11ZM26.91,11.83a5.944,5.944,0,0,1,3.25.923,6.471,6.471,0,0,1,2.3,2.561,7.992,7.992,0,0,1,.845,3.718,8.175,8.175,0,0,1-.832,3.731A6.393,6.393,0,0,1,30.2,25.337a5.791,5.791,0,0,1-3.185.923,5.575,5.575,0,0,1-2.353-.507,6.238,6.238,0,0,1-1.833-1.235v5.1a1.559,1.559,0,0,1-.442,1.131,1.493,1.493,0,0,1-1.118.455,1.515,1.515,0,0,1-1.118-.442,1.548,1.548,0,0,1-.442-1.144V13.676a1.559,1.559,0,0,1,.442-1.131,1.6,1.6,0,0,1,2.236,0,1.559,1.559,0,0,1,.442,1.131v.1a5.383,5.383,0,0,1,1.742-1.365A4.981,4.981,0,0,1,26.91,11.83ZM26.52,23.4a3.429,3.429,0,0,0,2.73-1.248,4.636,4.636,0,0,0,1.066-3.12,4.621,4.621,0,0,0-1.053-3.107A3.434,3.434,0,0,0,26.52,14.69a3.472,3.472,0,0,0-2.756,1.235A4.586,4.586,0,0,0,22.7,19.032a4.636,4.636,0,0,0,1.066,3.12A3.456,3.456,0,0,0,26.52,23.4Zm19.63.13a1.446,1.446,0,0,1,.338.936,1.487,1.487,0,0,1-.494,1.118,1.525,1.525,0,0,1-2.366-.208L40.508,21.5l-3.042,3.874a1.642,1.642,0,0,1-.559.481,1.473,1.473,0,0,1-.689.169,1.594,1.594,0,0,1-1.04-.416,1.232,1.232,0,0,1-.494-.962,1.522,1.522,0,0,1,.39-.988l3.614-4.42-3.744-4.654a1.446,1.446,0,0,1-.338-.936,1.464,1.464,0,0,1,.481-1.105,1.572,1.572,0,0,1,2.379.195l3.2,3.978,2.964-3.926a1.477,1.477,0,0,1,1.248-.7,1.432,1.432,0,0,1,1.053.429,1.344,1.344,0,0,1,.429.975,1.55,1.55,0,0,1-.364,1.014l-3.588,4.368Z" transform="translate(447 5)" fill="#aeaeae"/>
    <path id="Path_25" data-name="Path 25" d="M4.992,19.488a1.927,1.927,0,0,1-1.424-.5,1.927,1.927,0,0,1-.5-1.424v-.544a1.927,1.927,0,0,1,.5-1.424,1.927,1.927,0,0,1,1.424-.5h.416a1.927,1.927,0,0,1,1.424.5,1.927,1.927,0,0,1,.5,1.424v.544a1.927,1.927,0,0,1-.5,1.424,1.927,1.927,0,0,1-1.424.5ZM7.968,31.744A4.489,4.489,0,0,1,7.424,33.6a6.82,6.82,0,0,1-1.408,1.952,2.582,2.582,0,0,1-1.792.832,1.859,1.859,0,0,1-1.12-.3,1.127,1.127,0,0,1-.416-.976.881.881,0,0,1,.256-.72,1.688,1.688,0,0,1,.56-.3,3.289,3.289,0,0,0,.432-.16,1.438,1.438,0,0,0,.9-1.28.792.792,0,0,0-.336-.624,1.355,1.355,0,0,0-.88-.272,1.641,1.641,0,0,0-.9.224,1.473,1.473,0,0,1-.592-.416,1.2,1.2,0,0,1-.208-.768,1.814,1.814,0,0,1,.48-1.2,3.551,3.551,0,0,1,1.184-.9,3.182,3.182,0,0,1,1.376-.336,2.834,2.834,0,0,1,2.208.88A3.606,3.606,0,0,1,7.968,31.744Z" transform="translate(504 -5)" fill="#6e6e6e"/>
  </g>
</svg>
